<?xml version="1.0" encoding="UTF-8"?>
<svg version="1.1" xmlns="http://www.w3.org/2000/svg" width="1279" height="589">
<path d="M0 0 C49.11967882 -0.22257454 98.23939282 -0.42953788 147.35943604 -0.55046082 C148.08661366 -0.55225556 148.81379128 -0.5540503 149.56300459 -0.55589943 C165.36714675 -0.59480869 181.17129427 -0.63082085 196.97544979 -0.66384928 C204.72598464 -0.68006443 212.47651804 -0.69691966 220.22705078 -0.71411133 C220.99831534 -0.7158112 221.76957991 -0.71751106 222.56421613 -0.71926244 C247.55597896 -0.77464425 272.5473593 -0.87227894 297.53889048 -0.99186387 C323.22442952 -1.11454619 348.90975694 -1.19452415 374.59558402 -1.22089487 C378.2248484 -1.22464079 381.85411207 -1.22887407 385.48337555 -1.23340416 C386.19765527 -1.23428066 386.91193499 -1.23515716 387.64785956 -1.23606022 C399.13853445 -1.25141318 410.62855434 -1.31168101 422.11896228 -1.38881644 C433.67543348 -1.46543426 445.23100212 -1.49351263 456.78776553 -1.47551791 C463.04807928 -1.46718571 469.30647342 -1.48000842 475.5664463 -1.54967117 C481.30070369 -1.61301738 487.03175446 -1.6160872 492.76616064 -1.57168563 C494.83775755 -1.56620001 496.90955589 -1.58263432 498.98075733 -1.62348137 C515.23825245 -1.92539826 515.23825245 -1.92539826 520.82864428 2.8536669 C523.94185709 5.97964715 526.45665451 9.40275445 529 13 C552.34122504 39.3193976 589.70667587 53.57925814 624.1875 55.8125 C661.71783879 57.63353529 699.76050958 44.93466178 727.8347168 19.78710938 C730.26133117 17.56242439 732.63463036 15.28995205 735 13 C735.78632812 12.24203125 736.57265625 11.4840625 737.3828125 10.703125 C741.3387637 6.86460551 741.3387637 6.86460551 744.55738235 2.42272979 C747.45051034 -0.44684227 749.25068633 -0.59685683 753.24607575 -0.65504238 C754.08907947 -0.64190731 754.93208319 -0.62877224 755.80063248 -0.61523914 C756.70346265 -0.62100836 757.60629283 -0.62677759 758.5364815 -0.63272163 C761.58404208 -0.6460339 764.6303012 -0.62346346 767.67779541 -0.60127258 C769.87564458 -0.60345151 772.0734925 -0.60782673 774.27133346 -0.61421841 C780.32809842 -0.62543633 786.38442407 -0.60534681 792.44113302 -0.58032811 C798.29646785 -0.56100586 804.15175334 -0.56512677 810.00711203 -0.56873732 C821.98718437 -0.57531091 833.96711895 -0.5585844 845.94715118 -0.52865028 C857.81155325 -0.49908097 869.67589796 -0.47982377 881.54033661 -0.47438622 C882.6462289 -0.47387067 882.6462289 -0.47387067 883.77446245 -0.47334471 C887.51853046 -0.47165308 891.26259852 -0.47014614 895.00666663 -0.46871033 C921.53671006 -0.45820389 948.06667851 -0.42450493 974.59667969 -0.37719727 C1000.37271729 -0.33128705 1026.1487344 -0.29586315 1051.92480469 -0.2746582 C1052.71911633 -0.27400057 1053.51342797 -0.27334294 1054.33180966 -0.27266538 C1062.30849979 -0.26607287 1070.28519007 -0.25969379 1078.2618805 -0.25347109 C1094.51180733 -0.24078949 1110.76173283 -0.22668322 1127.01165771 -0.2117157 C1128.13241414 -0.21068602 1128.13241414 -0.21068602 1129.2758121 -0.20963555 C1179.18390659 -0.16362006 1229.09195708 -0.08428877 1279 0 C1279 0.33 1279 0.66 1279 1 C1274.44987003 1.85812977 1269.97688967 2.22438488 1265.35883522 2.38854313 C1264.60565099 2.41839933 1263.85246675 2.44825552 1263.07645875 2.47901645 C1260.55058073 2.57820297 1258.02452937 2.67190526 1255.4984436 2.76564026 C1253.67009081 2.83629695 1251.84175103 2.90729121 1250.01342332 2.97859424 C1244.98761197 3.17361629 1239.96162872 3.3638425 1234.93560481 3.55329645 C1229.51632995 3.75841155 1224.09722629 3.96795917 1218.67810059 4.17697144 C1209.28850255 4.53851338 1199.89880035 4.89724008 1190.50902176 5.25406075 C1176.93293786 5.76996912 1163.35701889 6.29011387 1149.78113656 6.81129634 C1127.75573542 7.65674314 1105.7302045 8.49875853 1083.70458984 9.33862305 C1062.30738536 10.15453284 1040.91024313 10.97204544 1019.51318359 11.79174805 C1018.19450789 11.84226425 1016.87583218 11.89278045 1015.51719661 11.94482744 C1008.90185991 12.1982596 1002.28652443 12.4517235 995.67118955 12.70520318 C940.78098077 14.80838926 885.89056029 16.90600945 831 19 C831.61415771 19.67981934 832.22831543 20.35963867 832.86108398 21.06005859 C833.66876221 21.95547363 834.47644043 22.85088867 835.30859375 23.7734375 C836.10837646 24.65950684 836.90815918 25.54557617 837.73217773 26.45849609 C840.2260769 29.25335995 842.63253294 32.09794361 845 35 C846.72669922 34.566875 846.72669922 34.566875 848.48828125 34.125 C872.93168359 28.29933973 896.76262456 30.07032201 918.6875 43.1875 C936.87194913 55.47282724 951.63003716 74.1730652 956 96 C959.80385709 121.57853305 959.80385709 121.57853305 955.375 128.5625 C951.86230365 130.68860568 950.05442273 130.74331083 946 130 C939.94935208 125.67713915 934.82559785 119.89746148 929.66015625 114.58203125 C928.08719398 112.98182652 926.51360734 111.38223533 924.93945312 109.78320312 C922.49356558 107.29405599 920.05174044 104.80142205 917.62036133 102.2980957 C915.249383 99.86022832 912.86254712 97.43884272 910.47265625 95.01953125 C909.7567482 94.27467972 909.04084015 93.52982819 908.30323792 92.7624054 C902.97442587 87.40591985 897.69677332 83.76038817 890.12573242 82.53466797 C883.35664946 82.76194025 876.92782988 83.6813352 870.3125 85.125 C869.33216797 85.31320312 868.35183594 85.50140625 867.34179688 85.6953125 C859.06255662 87.46983151 853.09201909 90.6215337 848.17578125 97.66015625 C845.36688042 102.6130945 844.28818882 107.89796774 843.1875 113.4375 C842.97158203 114.42298828 842.75566406 115.40847656 842.53320312 116.42382812 C840.47681188 126.2749214 839.70958563 134.16365513 845 143 C852.75393655 152.73416188 862.17733547 161.25680189 871 170 C874.0028553 172.97630933 877.00240271 175.95589625 880 178.9375 C880.68843994 179.6176416 881.37687988 180.2977832 882.08618164 180.99853516 C882.7177417 181.62679199 883.34930176 182.25504883 884 182.90234375 C884.8353125 183.72980103 884.8353125 183.72980103 885.6875 184.57397461 C887.82180301 186.8928853 888.01735624 188.15620619 888.375 191.375 C888 195 888 195 886.12109375 197.1953125 C881.64246467 199.78495785 877.77576435 199.5997869 872.6875 199.5 C871.7078125 199.48791504 870.728125 199.47583008 869.71875 199.46337891 C851.36029563 198.96842058 834.22764817 192.67396773 820 181 C818.70255859 179.948125 818.70255859 179.948125 817.37890625 178.875 C803.07277224 166.68103494 792.10277337 147.88115256 790 129 C788.18898051 103.37084025 792.33288766 83.3504384 809.19921875 63.3984375 C811.42785927 60.89358177 813.70066534 58.43994146 816 56 C816.55171875 55.38382812 817.1034375 54.76765625 817.671875 54.1328125 C822.99689081 48.41237472 829.52326486 44.29509804 836 40 C823.89418794 42.99362815 814.34003338 48.83349921 805 57 C804.38511719 57.53109375 803.77023437 58.0621875 803.13671875 58.609375 C798.27759385 63.12221744 794.68483231 68.53211749 791.015625 74.01171875 C789.40470468 76.40000179 787.75509953 78.71725979 786 81 C782.96273042 79.63389732 780.79084974 78.06926193 778.390625 75.76953125 C777.71773437 75.13080078 777.04484375 74.49207031 776.3515625 73.83398438 C775.65804687 73.16689453 774.96453125 72.49980469 774.25 71.8125 C771.51127455 69.19613206 768.7623142 66.5914561 766 64 C765.29939453 63.33532715 764.59878906 62.6706543 763.87695312 61.98583984 C763.19052734 61.35500488 762.50410156 60.72416992 761.796875 60.07421875 C761.18682617 59.50662842 760.57677734 58.93903809 759.94824219 58.35424805 C757.61619059 56.73320917 755.81118989 56.28887994 753 56 C752.34 56.33 751.68 56.66 751 57 C752.19936056 62.72002727 753.63100654 68.20310455 755.51171875 73.73828125 C756.08693773 76.40269555 756.1846943 77.53270277 755 80 C752.41796875 82.10546875 752.41796875 82.10546875 749.1875 84.1875 C747.60001953 85.22970703 747.60001953 85.22970703 745.98046875 86.29296875 C741.83452893 88.66751095 741.83452893 88.66751095 739 89 C737.29248047 88.02783203 737.29248047 88.02783203 735.6171875 86.5078125 C734.70259766 85.69763672 734.70259766 85.69763672 733.76953125 84.87109375 C733.14433594 84.29488281 732.51914062 83.71867187 731.875 83.125 C730.62371331 82.00113558 729.3711662 80.87867245 728.1171875 79.7578125 C727.56659668 79.2539502 727.01600586 78.75008789 726.44873047 78.23095703 C724.99939221 76.90038603 724.99939221 76.90038603 723 76 C721.515 76.99 721.515 76.99 720 78 C719.67669944 80.3289357 719.67669944 80.3289357 719.92578125 83.0078125 C720.00795898 84.48701172 720.00795898 84.48701172 720.09179688 85.99609375 C720.16462891 87.02863281 720.23746094 88.06117188 720.3125 89.125 C720.37373047 90.16527344 720.43496094 91.20554687 720.49804688 92.27734375 C720.65162495 94.85273 720.81951171 97.42638232 721 100 C718.2100561 101.17094005 715.41821403 102.33690927 712.625 103.5 C711.8309375 103.83386719 711.036875 104.16773438 710.21875 104.51171875 C709.45820312 104.82753906 708.69765625 105.14335937 707.9140625 105.46875 C707.2123291 105.76201172 706.5105957 106.05527344 705.78759766 106.35742188 C704 107 704 107 702 107 C700.25159752 104.92967882 698.61467291 102.85808173 697 100.6875 C696.54882812 100.09259766 696.09765625 99.49769531 695.6328125 98.88476562 C693.68002154 96.29933973 691.79758661 93.69637991 690 91 C686.91634129 90.7497843 686.91634129 90.7497843 684 91 C683.98018066 91.62567871 683.96036133 92.25135742 683.93994141 92.89599609 C683.84485774 95.72276519 683.73511254 98.54877815 683.625 101.375 C683.5940625 102.35984375 683.563125 103.3446875 683.53125 104.359375 C683.49257813 105.30039062 683.45390625 106.24140625 683.4140625 107.2109375 C683.3826416 108.08024902 683.3512207 108.94956055 683.31884766 109.84521484 C683 112 683 112 681 114 C678.5312895 114.65620291 676.12719707 115.20649052 673.625 115.6875 C672.95210937 115.82994141 672.27921875 115.97238281 671.5859375 116.11914062 C668.08157507 116.81242492 665.35531106 117.32015053 662 116 C660.81152344 114.44946289 660.81152344 114.44946289 659.859375 112.47265625 C659.51132812 111.76302734 659.16328125 111.05339844 658.8046875 110.32226562 C658.45664062 109.57654297 658.10859375 108.83082031 657.75 108.0625 C657.20472656 106.9497168 657.20472656 106.9497168 656.6484375 105.81445312 C654 100.32342575 654 100.32342575 654 98 C651.03 98.495 651.03 98.495 648 99 C646.02 105.6 644.04 112.2 642 119 C635.4 119 628.8 119 622 119 C620.02 112.4 618.04 105.8 616 99 C614.02 98.67 612.04 98.34 610 98 C609.74476563 98.84820312 609.48953125 99.69640625 609.2265625 100.5703125 C607.91505516 104.23752093 606.25356877 107.46574557 604.375 110.875 C603.74335937 112.02742188 603.11171875 113.17984375 602.4609375 114.3671875 C601.97882812 115.23601562 601.49671875 116.10484375 601 117 C598.95737483 116.71512349 596.91592973 116.42177949 594.875 116.125 C593.73804688 115.96257812 592.60109375 115.80015625 591.4296875 115.6328125 C583.09497207 114.09497207 583.09497207 114.09497207 581 112 C580.84313751 110.44051458 580.74923361 108.87457332 580.68359375 107.30859375 C580.64169922 106.36435547 580.59980469 105.42011719 580.55664062 104.44726562 C580.51732422 103.45404297 580.47800781 102.46082031 580.4375 101.4375 C580.37272461 99.94186523 580.37272461 99.94186523 580.30664062 98.41601562 C580.20019702 95.9441585 580.09818072 93.4721969 580 91 C577.22255643 90.47088362 577.22255643 90.47088362 574 91 C571.92548593 93.10149475 570.39842917 94.91871628 568.75 97.3125 C568.316875 97.90740234 567.88375 98.50230469 567.4375 99.11523438 C565.5634889 101.7035676 563.77246203 104.34130696 562 107 C560.51849242 106.59173486 559.03993475 106.17276672 557.5625 105.75 C556.73878906 105.51796875 555.91507813 105.2859375 555.06640625 105.046875 C550.94045101 103.63826863 546.98401699 101.77067422 543 100 C543.33 92.74 543.66 85.48 544 78 C542.68 77.34 541.36 76.68 540 76 C538.78763672 77.15628906 538.78763672 77.15628906 537.55078125 78.3359375 C536.47170441 79.3493314 535.39225771 80.36233158 534.3125 81.375 C533.78205078 81.88289063 533.25160156 82.39078125 532.70507812 82.9140625 C526.70531435 88.50893424 526.70531435 88.50893424 523 89 C520.13566197 87.7317246 517.70654195 85.97149391 515.1875 84.125 C514.49462891 83.63902344 513.80175781 83.15304687 513.08789062 82.65234375 C511.38035474 81.45118058 509.68857822 80.22767071 508 79 C509.04473589 73.11260596 510.35403439 67.52934183 512.4140625 61.91015625 C513.14663072 59.85498451 513.14663072 59.85498451 513 57 C512.01 56.67 511.02 56.34 510 56 C508.58460938 57.32451172 508.58460938 57.32451172 507.140625 58.67578125 C499.13412502 66.16191632 491.09692048 73.61174854 483 81 C479.16655691 79.5262357 477.93320724 77.64683631 475.9375 74.125 C466.57400598 58.90434164 452.84673406 47.18117581 436 41 C435.01 41 434.02 41 433 41 C433.78761719 41.57105469 434.57523437 42.14210938 435.38671875 42.73046875 C447.30457146 51.53498095 458.14338615 61.31463608 466 74 C466.60457031 74.89847656 467.20914062 75.79695313 467.83203125 76.72265625 C478.76569545 93.82520889 479.91805998 115.48767144 476 135 C470.62938463 156.90573413 457.72367399 174.90095695 438.875 187.1875 C425.15822478 195.30096444 410.61454831 199.33952089 394.6875 199.4375 C393.72521484 199.47037109 392.76292969 199.50324219 391.77148438 199.53710938 C387.03102286 199.57319593 384.75871103 199.57164461 380.87890625 196.6484375 C379 194 379 194 378.25 191.1875 C380.06678574 183.4661606 388.66603108 177.24025289 394.19921875 171.84375 C395.75369602 170.31164504 397.30771907 168.7790791 398.86132812 167.24609375 C401.27936236 164.86519194 403.7002826 162.48752799 406.12915039 160.11767578 C408.49509165 157.80640111 410.84797807 155.48246563 413.19921875 153.15625 C413.9221965 152.45705444 414.64517426 151.75785889 415.39006042 151.03747559 C421.47105133 144.98815157 426.12561273 138.30097948 426.171875 129.4453125 C426.11376309 124.10870164 425.33011006 119.09015826 424.25 113.875 C424.09273438 113.03324219 423.93546875 112.19148438 423.7734375 111.32421875 C422.03904011 102.7189394 419.16393543 96.06258353 412.24609375 90.46484375 C408.38088789 87.94405732 404.47710055 86.95808747 400 86 C398.80503906 85.72285156 397.61007812 85.44570313 396.37890625 85.16015625 C381.35524625 81.83818761 381.35524625 81.83818761 367 86 C357.0683501 93.86749729 348.40154823 103.52007336 339.5 112.5 C336.42993881 115.59660351 333.35660323 118.68990323 330.28125 121.78125 C329.57923462 122.49156372 328.87721924 123.20187744 328.15393066 123.93371582 C327.50565308 124.58529663 326.85737549 125.23687744 326.18945312 125.90820312 C325.62005005 126.48284302 325.05064697 127.05748291 324.46398926 127.64953613 C322.10699642 129.8237554 320.90925593 130.00840223 317.625 130.3125 C314 130 314 130 311.8046875 128.68359375 C308.8830315 124.33905333 309.40885343 119.86363688 309.5 114.75 C309.51353516 113.67041016 309.52707031 112.59082031 309.54101562 111.47851562 C310.12228182 88.80913403 319.92091915 67.97266657 336.33984375 52.2578125 C355.37570579 36.10108965 378.0905479 28.99905097 403 31 C408.07929229 31.66049608 413.03296329 32.75339651 418 34 C419.33330707 34.33343836 420.66663497 34.66679346 422 35 C423.98195646 32.87754286 425.96064257 30.75219732 427.9375 28.625 C428.50146484 28.02171875 429.06542969 27.4184375 429.64648438 26.796875 C430.18466797 26.21679688 430.72285156 25.63671875 431.27734375 25.0390625 C431.77484131 24.50490723 432.27233887 23.97075195 432.78491211 23.42041016 C434.10293508 21.9954525 434.10293508 21.9954525 435 20 C431.30966418 18.87093944 427.73089755 18.76581442 423.88718605 18.61425018 C422.80662113 18.56991528 422.80662113 18.56991528 421.70422661 18.52468473 C419.27786424 18.42616281 416.85130945 18.33365618 414.42471313 18.24108887 C412.67248249 18.17117749 410.92026661 18.10089525 409.16806448 18.03027296 C404.34316029 17.83687229 399.51806372 17.64870833 394.69292116 17.4613626 C389.49297978 17.25854451 384.29323179 17.05087969 379.09346008 16.84376526 C370.07981087 16.48537355 361.06604772 16.12997238 352.05220413 15.77650452 C339.01305432 15.26511783 325.97412009 14.74839636 312.93523876 14.2302143 C291.77302372 13.38927523 270.61068377 12.55152626 249.44824219 11.71630859 C247.54747907 11.64128964 247.54747907 11.64128964 245.6083167 11.56475514 C239.18752569 11.31135262 232.76673309 11.05799012 226.34593964 10.80464935 C213.50145243 10.29784904 200.65697199 9.7908773 187.8125 9.28369141 C185.91495529 9.20876521 185.91495529 9.20876521 183.97907634 9.13232535 C162.89956304 8.29988662 141.82016882 7.46446745 120.74085557 6.6269784 C107.73219489 6.11029019 94.72343089 5.59635401 81.71452247 5.08594048 C72.80318109 4.73613346 63.89194738 4.38367038 54.98079421 4.02910173 C49.83592048 3.82448986 44.69100428 3.62115248 39.54594994 3.42112923 C34.8381867 3.23808792 30.13057463 3.05157053 25.42305927 2.86226422 C23.71788705 2.79431971 22.01266256 2.72767223 20.30738457 2.66243643 C17.99293297 2.57371385 15.67871523 2.48031916 13.36449623 2.38574982 C12.07789372 2.33502964 10.79129121 2.28430947 9.46570075 2.23205233 C6.2486313 2.01664756 3.16686095 1.59340403 0 1 C0 0.67 0 0.34 0 0 Z M464 127 C465 129 465 129 465 129 Z M463 131 C462.731875 131.77601563 462.46375 132.55203125 462.1875 133.3515625 C455.18535399 152.65353078 444.53615657 166.83753701 428 179 C427.2471875 179.56460938 426.494375 180.12921875 425.71875 180.7109375 C424.86796875 181.34902344 424.86796875 181.34902344 424 182 C434.44123292 180.51644352 444.32245465 171.59000286 450.90234375 163.7265625 C457.11265348 155.3283756 462.30139551 145.38036076 464 135 C463.57966718 132.84246903 463.57966718 132.84246903 463 131 Z M803 131 C803.70290958 142.94946291 809.12770448 153.409673 816 163 C816.46019531 163.64582031 816.92039062 164.29164063 817.39453125 164.95703125 C823.09722871 172.23742023 831.70561407 178.02560674 840 182 C840.99 181.67 841.98 181.34 843 181 C842.46632813 180.67128906 841.93265625 180.34257813 841.3828125 180.00390625 C823.24592647 168.42516759 810.37365886 151.54666342 804 131 C803.67 131 803.34 131 803 131 Z " fill="#26284A" transform="translate(0,390)"/>
<path d="M0 0 C1.3919458 0.02380737 1.3919458 0.02380737 2.81201172 0.0480957 C15.73376079 0.46731697 27.81325983 3.43199513 39.25 9.5625 C40.21164062 10.05363281 41.17328125 10.54476563 42.1640625 11.05078125 C60.75220039 21.11335202 74.27429857 38.20577369 80.46484375 58.39453125 C82.37925468 65.02559482 83.96153541 71.65189187 84.25 78.5625 C84.28996094 79.38621094 84.32992188 80.20992188 84.37109375 81.05859375 C84.91739833 103.19999714 77.45548549 120.90208595 63.25 137.5625 C62.65832031 138.29984375 62.06664062 139.0371875 61.45703125 139.796875 C55.16813713 147.35963893 46.37558028 155.60958775 37.25 159.5625 C48.04856518 158.28436937 58.29070081 151.73151416 66.25 144.5625 C67.55710937 143.39460938 67.55710937 143.39460938 68.890625 142.203125 C76.38953368 135.12314976 81.82664428 127.27986788 87.25 118.5625 C90.3775606 119.95627597 92.55566193 121.59744132 95.0078125 123.9765625 C96.06367554 124.98976562 96.06367554 124.98976562 97.14086914 126.0234375 C97.87813232 126.73757812 98.61539551 127.45171875 99.375 128.1875 C105.44015678 133.98912322 111.51857641 139.53460621 118.25 144.5625 C119.57 143.9025 120.89 143.2425 122.25 142.5625 C121.72433146 136.7801461 120.03716807 131.69519907 118.08984375 126.234375 C117.25 123.5625 117.25 123.5625 117.25 120.5625 C118.62695312 119.30395508 118.62695312 119.30395508 120.53125 118.08203125 C121.20800781 117.64052734 121.88476562 117.19902344 122.58203125 116.74414062 C123.29746094 116.29232422 124.01289062 115.84050781 124.75 115.375 C125.82314453 114.67987305 125.82314453 114.67987305 126.91796875 113.97070312 C128.68928122 112.8252544 130.46889127 111.69265589 132.25 110.5625 C135.94333099 112.16905532 138.73694984 114.48489605 141.8125 117.0625 C144.57911711 119.37489639 147.24876548 121.56167699 150.25 123.5625 C152.34996326 122.3987425 152.34996326 122.3987425 154.25 120.5625 C154.61837684 118.23565094 154.61837684 118.23565094 154.203125 115.67578125 C154.0484375 114.2690918 154.0484375 114.2690918 153.890625 112.83398438 C153.76171875 111.85751953 153.6328125 110.88105469 153.5 109.875 C153.3865625 108.88693359 153.273125 107.89886719 153.15625 106.88085938 C152.8730784 104.43850431 152.57034336 102.00021166 152.25 99.5625 C155.0399439 98.39155995 157.83178597 97.22559073 160.625 96.0625 C161.4190625 95.72863281 162.213125 95.39476563 163.03125 95.05078125 C163.79179688 94.73496094 164.55234375 94.41914062 165.3359375 94.09375 C166.0376709 93.80048828 166.7394043 93.50722656 167.46240234 93.20507812 C169.25 92.5625 169.25 92.5625 171.25 92.5625 C172.99840248 94.63282118 174.63532709 96.70441827 176.25 98.875 C176.70117188 99.46990234 177.15234375 100.06480469 177.6171875 100.67773438 C179.56997846 103.26316027 181.45241339 105.86612009 183.25 108.5625 C186.33365871 108.8127157 186.33365871 108.8127157 189.25 108.5625 C189.28758423 107.72271606 189.28758423 107.72271606 189.32592773 106.8659668 C189.44203745 104.32708695 189.5646958 101.78856447 189.6875 99.25 C189.74647461 97.92838867 189.74647461 97.92838867 189.80664062 96.58007812 C189.84853516 95.73251953 189.89042969 94.88496094 189.93359375 94.01171875 C189.97025146 93.23143311 190.00690918 92.45114746 190.04467773 91.6472168 C190.25 89.5625 190.25 89.5625 191.25 86.5625 C193.7265625 85.6484375 193.7265625 85.6484375 196.875 84.9375 C197.89851562 84.69773437 198.92203125 84.45796875 199.9765625 84.2109375 C203.38958719 83.53484908 206.8017757 83.02284229 210.25 82.5625 C211.7566972 85.3506022 213.25419804 88.14353958 214.75 90.9375 C215.17925781 91.7315625 215.60851562 92.525625 216.05078125 93.34375 C216.45683594 94.10429688 216.86289062 94.86484375 217.28125 95.6484375 C217.84682617 96.7010376 217.84682617 96.7010376 218.42382812 97.77490234 C219.25 99.5625 219.25 99.5625 219.25 101.5625 C221.56 101.5625 223.87 101.5625 226.25 101.5625 C226.43369141 100.06009766 226.43369141 100.06009766 226.62109375 98.52734375 C227.4999196 92.37556283 229.49397073 86.51034108 231.25 80.5625 C237.85 80.5625 244.45 80.5625 251.25 80.5625 C252.054375 83.12 252.85875 85.6775 253.6875 88.3125 C253.93943115 89.11139648 254.1913623 89.91029297 254.45092773 90.73339844 C254.65145752 91.3730957 254.8519873 92.01279297 255.05859375 92.671875 C255.26282959 93.32124023 255.46706543 93.97060547 255.67749023 94.63964844 C256.26169727 96.60178688 256.76810648 98.57299584 257.25 100.5625 C259.23 100.8925 261.21 101.2225 263.25 101.5625 C263.50523437 100.71429688 263.76046875 99.86609375 264.0234375 98.9921875 C266.10450989 93.17313794 269.27139292 87.96812025 272.25 82.5625 C278.85 83.8825 285.45 85.2025 292.25 86.5625 C292.93550091 93.93163476 293.3973379 101.16286343 293.25 108.5625 C295.95549011 109.23576104 295.95549011 109.23576104 299.25 108.5625 C301.94010112 106.20808671 303.99223879 103.41904895 306.125 100.5625 C306.71796875 99.799375 307.3109375 99.03625 307.921875 98.25 C309.38123509 96.36695473 310.81787171 94.46633821 312.25 92.5625 C318.19 94.8725 324.13 97.1825 330.25 99.5625 C330.105625 102.058125 329.96125 104.55375 329.8125 107.125 C329.76939697 107.89658447 329.72629395 108.66816895 329.68188477 109.46313477 C329.41583768 113.87681647 328.93317364 118.19363326 328.25 122.5625 C330.34911418 123.65678049 330.34911418 123.65678049 333.25 123.5625 C336.14994385 121.75091091 338.56841537 119.45201676 341.0625 117.125 C341.75537109 116.50044922 342.44824219 115.87589844 343.16210938 115.23242188 C344.87072644 113.68877473 346.56545317 112.13231382 348.25 110.5625 C352.46654356 112.04885116 355.87478605 114.17499159 359.5625 116.6875 C360.63113281 117.41195312 361.69976563 118.13640625 362.80078125 118.8828125 C364.01314453 119.71425781 364.01314453 119.71425781 365.25 120.5625 C364.69277846 125.23142994 363.76999798 129.3883121 362.1875 133.8125 C360.65400382 138.0862451 360.65400382 138.0862451 360.25 142.5625 C361.93427776 143.56616817 361.93427776 143.56616817 364.25 143.5625 C366.37592284 141.78887295 368.14267992 140.08732688 370 138.0625 C371.06833997 136.94342607 372.13865214 135.82623157 373.2109375 134.7109375 C373.98969238 133.89447754 373.98969238 133.89447754 374.78417969 133.06152344 C377.214784 130.57586213 379.84779767 128.34926015 382.4921875 126.09765625 C385.21708334 123.71791388 387.72437555 121.15126506 390.25 118.5625 C394.08344309 120.0362643 395.31679276 121.91566369 397.3125 125.4375 C406.8286928 140.95214766 420.34044741 152.00364324 437.25 158.5625 C438.24 158.5625 439.23 158.5625 440.25 158.5625 C439.06857422 157.70591797 439.06857422 157.70591797 437.86328125 156.83203125 C418.34356912 142.41994182 401.05399363 123.78861127 396.59570312 99.11767578 C394.61156415 84.45242256 395.40532866 69.55467577 400.25 55.5625 C400.600625 54.51320312 400.95125 53.46390625 401.3125 52.3828125 C409.37926597 30.81541737 426.68032255 15.67892886 447.125 6.25 C457.90681971 1.89214996 468.34195003 0.31536959 479.875 0.125 C480.72852051 0.10260254 481.58204102 0.08020508 482.46142578 0.05712891 C486.34929778 0.07183517 488.80808299 0.34377905 492.3359375 2.08984375 C494.44006294 4.80803029 495.28223789 6.78902804 495.05126953 10.265625 C493.17872143 15.63336799 488.26618038 19.29102034 484.1875 23.0625 C482.29860812 24.86230539 480.41184929 26.66435236 478.52734375 28.46875 C477.61621826 29.33419434 476.70509277 30.19963867 475.76635742 31.09130859 C472.97521033 33.83235748 470.43578487 36.71085364 467.90600586 39.69042969 C465.58342224 42.31604832 463.04813808 44.68520405 460.50219727 47.09155273 C453.20503678 54.03602478 447.64351245 59.65332948 447.046875 70.12890625 C447.12861798 75.56386364 448.28745843 80.76887582 449.4375 86.0625 C449.63408203 87.05636719 449.83066406 88.05023438 450.03320312 89.07421875 C451.99094083 98.19426457 455.32170899 105.22615028 463.25 110.5625 C474.717071 115.89770566 491.76735808 119.57570973 503.87890625 115.2734375 C510.33116688 111.81980151 515.22264518 105.96588062 520.25 100.75 C522.32898993 98.61422285 524.4136553 96.48405956 526.5 94.35546875 C527.00032242 93.84314697 527.50064484 93.3308252 528.01612854 92.80297852 C531.38593369 89.37398912 534.8801915 86.17299342 538.54248047 83.06274414 C542.11382566 79.9249237 545.23200802 76.32060715 548.44140625 72.8203125 C551.81485364 70.10841738 553.96074351 69.66785016 558.25 69.5625 C561.58604448 71.37556765 562.93411283 72.54194143 564.0625 76.1875 C565.29438253 98.3613855 560.19232744 120.91386293 545.46484375 138.12890625 C544.73394531 138.93199219 544.00304687 139.73507813 543.25 140.5625 C542.01443359 141.93728516 542.01443359 141.93728516 540.75390625 143.33984375 C526.52330994 158.3965995 506.74774145 167.95702206 485.96875 168.84375 C475.31255973 169.10350037 465.55070831 168.46051269 455.25 165.5625 C453.91744637 165.22606319 452.58445247 164.89132441 451.25 164.5625 C449.84945441 166.0789949 448.45481691 167.60094674 447.0625 169.125 C446.28519531 169.97191406 445.50789062 170.81882813 444.70703125 171.69140625 C442.8685362 173.83972717 441.22180347 175.94180507 439.59643555 178.24194336 C439.15454391 178.86572372 438.71265228 179.48950409 438.25737 180.13218689 C437.9249379 180.60419022 437.5925058 181.07619354 437.25 181.5625 C437.8230931 181.55489153 438.3961862 181.54728306 438.98664576 181.53944403 C459.77794956 181.30739202 480.50529806 182.08403573 501.27634037 182.90052879 C506.34007826 183.09846258 511.40403892 183.29054489 516.4679718 183.4834137 C526.34765232 183.86060554 536.22712153 184.24307464 546.10652547 184.62743514 C557.62821646 185.07550042 569.15010641 185.51834528 580.67200477 185.96104044 C601.2286816 186.75105845 621.78516782 187.54593127 642.34155273 188.34350586 C662.26555999 189.1165418 682.18970716 189.88583843 702.11401367 190.65112305 C727.33198264 191.61974314 752.54982234 192.59166186 777.76755936 193.56630171 C785.79172517 193.87633013 793.81593579 194.18518173 801.84016228 194.49363518 C811.61201953 194.86933296 821.38379098 195.24718112 831.15546113 195.62771528 C836.1370813 195.82166937 841.11873178 196.0147254 846.10048294 196.20528793 C850.66387998 196.37987828 855.22716501 196.55714634 859.79037661 196.7365163 C861.43712118 196.80078748 863.08390344 196.86410203 864.73072612 196.92633962 C873.26150796 197.24930706 881.75655446 197.65639643 890.25 198.5625 C890.25 198.8925 890.25 199.2225 890.25 199.5625 C839.50958999 199.78506937 788.76914486 199.99203339 738.02838135 200.11296082 C737.27723818 200.11475556 736.52609502 200.1165503 735.75218995 200.11839943 C719.42728321 200.15730848 703.10237129 200.19332066 686.77745162 200.22634928 C678.77155514 200.24256446 670.76566006 200.25941969 662.75976562 200.27661133 C661.96308874 200.2783112 661.16641185 200.28001106 660.34559323 200.28176244 C634.5293062 200.33714653 608.7133894 200.43478297 582.8973266 200.55436387 C556.36487648 200.67703969 529.8326312 200.75702266 503.29990227 200.78339487 C499.55117385 200.78714081 495.80244612 200.79137408 492.05371857 200.79590416 C491.31592529 200.79678066 490.57813201 200.79765716 489.81798135 200.79856022 C477.94794443 200.81391455 466.07854142 200.8741862 454.20876287 200.95131644 C442.27149446 201.02792445 430.33485357 201.05706598 418.39734802 201.03801791 C411.93048123 201.02968448 405.46547266 201.0425234 398.9989357 201.11217117 C393.07596745 201.1754985 387.15610402 201.17859841 381.23299196 201.13418563 C379.09275694 201.12869825 376.95232719 201.14514757 374.8124747 201.18598137 C358.01123999 201.48789819 358.01123999 201.48789819 352.38207293 196.7088331 C349.26734063 193.58883442 346.77415289 190.1688614 344.25 186.5625 C323.11711856 162.70451091 287.75801102 146.90565905 256.25 144.5625 C225.52081722 143.17656904 197.33660375 147.38622263 170.25 162.5625 C169.58758301 162.93358887 168.92516602 163.30467773 168.24267578 163.68701172 C154.06145234 171.78028427 134.77661077 184.50927846 127.25 199.5625 C-43.03 199.5625 -213.31 199.5625 -388.75 199.5625 C-388.75 199.2325 -388.75 198.9025 -388.75 198.5625 C-379.61150502 197.59535645 -370.46481224 197.19549838 -361.28684998 196.84155273 C-359.63200549 196.77564613 -357.97717088 196.70949125 -356.32234532 196.64311123 C-351.79861365 196.46235863 -347.27475131 196.28508921 -342.75085914 196.10840559 C-337.86237395 195.91685985 -332.97401898 195.72204279 -328.08564758 195.52761841 C-319.61996315 195.19134724 -311.15420085 194.85709789 -302.6883831 194.52420044 C-290.42873564 194.0420915 -278.16922435 193.55658907 -265.90974534 193.07021749 C-245.99191433 192.2800805 -226.07399314 191.49224206 -206.15600586 190.70605469 C-204.96472083 190.65903266 -203.77343579 190.61201064 -202.54605121 190.5635637 C-201.35332878 190.51648511 -200.16060635 190.46940652 -198.93174082 190.4209013 C-182.04000186 189.75415427 -165.14828389 189.08687878 -148.2565918 188.41894531 C-147.06888679 188.37198151 -145.88118178 188.32501771 -144.65748572 188.27663076 C-124.82077435 187.49220773 -104.98410906 186.70662393 -85.1474672 185.92044544 C-72.92677587 185.4361812 -60.70603926 184.95308817 -48.48524076 184.47153592 C-40.10283252 184.14118486 -31.72046336 183.80985459 -23.33812355 183.47777152 C-18.50963572 183.28652314 -13.68113046 183.09574672 -8.85257339 182.90625381 C-4.42025785 182.73230643 0.01200218 182.55700637 4.44422435 182.38069642 C6.03570625 182.31762117 7.62720706 182.25502069 9.21872968 182.1929816 C20.23636704 181.76314532 31.24256328 181.20229121 42.25 180.5625 C41.59805664 179.84344482 40.94611328 179.12438965 40.27441406 178.38354492 C33.52552506 170.93991734 33.52552506 170.93991734 31.1796875 167.7265625 C30.54289062 167.01242188 29.90609375 166.29828125 29.25 165.5625 C26.28684826 165.61358882 24.08659838 165.89415923 21.25 166.5625 C14.26446922 168.18041053 7.6720866 168.91878253 0.5 168.875 C-0.46156006 168.87008545 -1.42312012 168.8651709 -2.41381836 168.86010742 C-25.69977092 168.47920307 -45.47364248 158.81516559 -61.75 142.5625 C-62.41902344 141.90507812 -63.08804687 141.24765625 -63.77734375 140.5703125 C-77.67604434 125.88370371 -84.06542407 105.09412061 -84.1875 85.25 C-84.22037109 84.28771484 -84.25324219 83.32542969 -84.28710938 82.33398438 C-84.32310868 77.60498459 -84.30021438 75.31001348 -81.4296875 71.41015625 C-78.75 69.5625 -78.75 69.5625 -75.4375 69.3125 C-67.39330071 72.03934722 -61.43940325 79.77720065 -55.62890625 85.76171875 C-54.10151689 87.31635026 -52.57350317 88.87036856 -51.04492188 90.42382812 C-48.67145666 92.84055003 -46.3020655 95.26075275 -43.94311523 97.69165039 C-41.64164486 100.06003092 -39.32430748 102.41190149 -37.00390625 104.76171875 C-35.96285484 105.84618538 -35.96285484 105.84618538 -34.90077209 106.95256042 C-29.66800226 112.21331194 -24.32121901 115.69543475 -16.94921875 117.09375 C-4.68313064 116.94113926 13.07728471 115.64439633 22.25 106.5625 C26.78144426 100.79050159 28.56660154 94.84693466 30.0625 87.75 C30.27841797 86.82896484 30.49433594 85.90792969 30.71679688 84.95898438 C32.66187503 76.13512187 33.91087291 67.05618066 29.66625977 58.75952148 C22.58734631 47.77811445 11.47556886 38.70497345 2.25 29.5625 C-0.7528553 26.58619067 -3.75240271 23.60660375 -6.75 20.625 C-7.43843994 19.9448584 -8.12687988 19.2647168 -8.83618164 18.56396484 C-9.4677417 17.93570801 -10.09930176 17.30745117 -10.75 16.66015625 C-11.5853125 15.83269897 -11.5853125 15.83269897 -12.4375 14.98852539 C-14.3675801 12.89150197 -14.74411212 11.60665914 -15.125 8.75 C-14.75 5.5625 -14.75 5.5625 -12.8359375 2.8984375 C-8.53480876 -0.35735362 -5.25721425 -0.1579156 0 0 Z M32.25 18.5625 C34.86773234 21.27477797 37.54054491 23.62597836 40.5625 25.875 C54.46262911 36.61290661 64.11529547 51.77696845 69.25 68.5625 C71.62343472 62.12475223 67.57538963 54.5546675 64.9609375 48.65234375 C58.02315668 35.1837469 48.08755513 24.91035746 34.25 18.5625 C33.59 18.5625 32.93 18.5625 32.25 18.5625 Z M445.25 18.5625 C430.87762415 24.74515928 419.24806863 37.18827294 413.41259766 51.63574219 C409.69029585 60.48240097 409.69029585 60.48240097 410.25 69.5625 C410.52972656 68.77488281 410.80945313 67.98726562 411.09765625 67.17578125 C418.72740233 46.44544222 429.54957605 32.45667745 447.25 19.5625 C446.59 19.2325 445.93 18.9025 445.25 18.5625 Z M70.25 69.5625 C71.25 71.5625 71.25 71.5625 71.25 71.5625 Z " fill="#26284A" transform="translate(388.75,-0.5625)"/>
<path d="M0 0 C0.66 -1.98 1.32 -3.96 2 -6 C23.12 -6 44.24 -6 66 -6 C64 7 64 7 62 15 C55.4 15 48.8 15 42 15 C41.67 17.64 41.34 20.28 41 23 C40.6259309 25.06641682 40.22686401 27.12849258 39.80078125 29.18481445 C39.56383545 30.33573074 39.32688965 31.48664703 39.08276367 32.67243958 C38.82857666 33.89041733 38.57438965 35.10839508 38.3125 36.36328125 C38.04993408 37.63221725 37.78736816 38.90115326 37.5168457 40.20854187 C36.96403822 42.87910417 36.40911593 45.54921494 35.85253906 48.21899414 C35.13963698 51.63906369 34.43116317 55.06003198 33.72413635 58.48132038 C33.04721811 61.75488181 32.36729854 65.0278167 31.6875 68.30078125 C31.43331299 69.52888016 31.17912598 70.75697906 30.91723633 72.02229309 C30.68029053 73.15744858 30.44334473 74.29260406 30.19921875 75.4621582 C29.99127686 76.4617305 29.78333496 77.4613028 29.5690918 78.49116516 C29 81 29 81 28 84 C19.75 84 11.5 84 3 84 C4.27381469 75.34813505 5.77118248 66.79977501 7.56640625 58.2421875 C7.80536118 57.09130646 8.0443161 55.94042542 8.29051208 54.75466919 C8.79062891 52.34945981 9.29235836 49.94458521 9.7956543 47.54003906 C10.56764063 43.85043101 11.3340039 40.15968683 12.09960938 36.46875 C12.58821485 34.12232776 13.07713565 31.77597114 13.56640625 29.4296875 C13.79558243 28.32664276 14.02475861 27.22359802 14.26087952 26.08712769 C14.58142555 24.55875778 14.58142555 24.55875778 14.90844727 22.99951172 C15.09560806 22.10384491 15.28276886 21.2081781 15.4756012 20.28536987 C16 18 16 18 17 15 C10.73 15 4.46 15 -2 15 C-1.67 12.03 -1.34 9.06 -1 6 C-4.465 12.93 -4.465 12.93 -8 20 C-11.85762385 19.22847523 -14.20385709 18.53365196 -17.625 16.9375 C-23.81471119 14.43214071 -29.83319029 13.56788406 -36.26171875 15.77734375 C-43.08366733 19.42871051 -46.50112848 25.80881586 -49.03515625 32.89453125 C-51.29378434 40.91003465 -52.76288094 50.03746385 -49.8125 58.0625 C-47.71838623 61.45640853 -46.75148745 62.64307901 -43 64 C-35.80074124 65.07652468 -29.65823508 63.22599 -22.8828125 60.875 C-20 60 -20 60 -16 60 C-16 66.6 -16 73.2 -16 80 C-27.88561955 85.94280978 -42.72236276 88.24411506 -55.77734375 84.80859375 C-64.19292933 81.74703625 -70.12575243 77.14678228 -74 69 C-76.57219116 62.76389129 -77.52117364 57.16326709 -77.4375 50.4375 C-77.42992676 49.57125 -77.42235352 48.705 -77.41455078 47.8125 C-77.00414652 31.49219022 -71.86638063 16.13840894 -60.41796875 4.19140625 C-43.77146257 -10.89533037 -18.96747814 -10.57801666 0 0 Z " fill="#26284A" transform="translate(984,253)"/>
<path d="M0 0 C3.06451712 1.02150571 4.38824376 1.80183923 6.8125 3.75 C8.84350859 5.34546498 9.88993688 6.09272223 12.48828125 6.265625 C15.57296096 5.88215476 18.4308489 5.1063837 21.375 4.125 C27.71228348 3.67233689 27.71228348 3.67233689 30.06750488 5.28105164 C31.89928705 7.86439722 31.76942786 9.72553099 31.79492188 12.87817383 C31.81878967 14.65065239 31.81878967 14.65065239 31.84313965 16.4589386 C31.84334106 17.73705917 31.84354248 19.01517975 31.84375 20.33203125 C31.85517029 22.30196297 31.85517029 22.30196297 31.86682129 24.31169128 C31.88027098 27.09337902 31.88183384 29.87478298 31.87597656 32.65649414 C31.87009236 36.21106244 31.90061315 39.76425918 31.94109344 43.31856251 C31.97326438 46.71892785 31.96885408 50.11901431 31.96875 53.51953125 C31.98514526 54.79157913 32.00154053 56.06362701 32.01843262 57.3742218 C31.9414998 67.22174712 31.9414998 67.22174712 29.05664062 70.90893555 C25.69690001 73.68537087 23.71728834 74.20254086 19.375 74.125 C15.64461819 72.51415331 13.41888246 70.6152727 11.375 67.125 C11.05071651 64.44357288 10.88699745 61.98052466 10.86328125 59.296875 C10.84533005 58.54786926 10.82737885 57.79886353 10.80888367 57.02716064 C10.75485457 54.64316376 10.72090997 52.2593662 10.6875 49.875 C10.65432025 48.25518064 10.61982997 46.63538756 10.58398438 45.015625 C10.49913284 41.05222734 10.43228711 37.08888803 10.375 33.125 C8.89 32.63 8.89 32.63 7.375 32.125 C7.37089111 33.15383301 7.36678223 34.18266602 7.36254883 35.24267578 C7.34069212 39.0786269 7.28633647 42.91356176 7.22241211 46.74902344 C7.19928871 48.40549949 7.18484968 50.06212138 7.17944336 51.71875 C7.17011157 54.10768921 7.12903536 56.49435279 7.08203125 58.8828125 C7.0859639 59.61742706 7.08989655 60.35204163 7.09394836 61.10891724 C6.93244363 66.86653421 5.33081295 69.23494912 1.375 73.125 C-1.30292101 74.30673408 -3.71981493 74.38376142 -6.625 74.125 C-9.46588649 72.95159036 -11.0030214 72.03752793 -12.73193359 69.50097656 C-13.99561119 66.13899996 -13.98240078 62.84369137 -14.0390625 59.296875 C-14.05842865 58.54786926 -14.0777948 57.79886353 -14.0977478 57.02716064 C-14.15735716 54.64322164 -14.20385354 52.25923386 -14.25 49.875 C-14.28819701 48.25518769 -14.32724975 46.63539532 -14.3671875 45.015625 C-14.46304313 41.05224594 -14.54714246 37.08877181 -14.625 33.125 C-15.615 32.795 -16.605 32.465 -17.625 32.125 C-17.63958252 33.12877686 -17.65416504 34.13255371 -17.66918945 35.16674805 C-17.72732052 38.9037575 -17.80455165 42.64017369 -17.88745117 46.37670898 C-17.9206311 47.99151963 -17.94868458 49.60644431 -17.97143555 51.22143555 C-18.00511025 53.54785592 -18.05742963 55.87323783 -18.11328125 58.19921875 C-18.12286613 59.27607185 -18.12286613 59.27607185 -18.13264465 60.37467957 C-18.26091382 64.78330818 -18.95167802 67.59884408 -21.625 71.125 C-24.65989564 73.6540797 -26.14387435 74.125 -30.125 74.125 C-34.407855 72.90132714 -35.87418485 71.61052105 -38.625 68.125 C-39.1318646 65.21911391 -39.34745392 62.88164874 -39.33203125 59.98046875 C-39.35471321 58.8257885 -39.35471321 58.8257885 -39.37785339 57.64778137 C-39.42065263 55.20238782 -39.4295601 52.7582304 -39.4375 50.3125 C-39.46065061 48.64905586 -39.48601713 46.98564098 -39.51367188 45.32226562 C-39.57644647 41.25640154 -39.60884249 37.19130575 -39.625 33.125 C-41.11 32.63 -41.11 32.63 -42.625 32.125 C-42.63958252 33.00760498 -42.65416504 33.89020996 -42.66918945 34.79956055 C-42.73042067 38.08938643 -42.8046033 41.3783993 -42.88745117 44.66772461 C-42.92060557 46.08851202 -42.94866692 47.50942813 -42.97143555 48.93041992 C-43.00515847 50.9789082 -43.05747745 53.0262272 -43.11328125 55.07421875 C-43.13946533 56.30487061 -43.16564941 57.53552246 -43.19262695 58.8034668 C-43.79294946 63.41520462 -45.32546679 66.04205566 -48.875 69 C-52.63020982 70.5362222 -54.74176531 70.23449563 -58.625 69.125 C-61.58590827 67.05519697 -63.36235609 65.44230789 -64.08572388 61.81420898 C-64.27157157 58.89577105 -64.29153451 56.01792178 -64.25390625 53.09375 C-64.25631821 52.0250769 -64.25873016 50.95640381 -64.26121521 49.85534668 C-64.26023714 47.59932743 -64.24685336 45.34328406 -64.22192383 43.08740234 C-64.18761796 39.63686482 -64.20126793 36.18888887 -64.22070312 32.73828125 C-64.21380451 30.54425995 -64.20413198 28.35024524 -64.19140625 26.15625 C-64.19636612 25.12592651 -64.20132599 24.09560303 -64.20643616 23.03405762 C-64.1336984 18.60401567 -64.06430756 15.87153724 -61.78491211 11.99804688 C-58.66582998 9.2932206 -56.75020655 9.125 -52.625 9.125 C-50.92552013 9.65019584 -49.23805146 10.21534858 -47.5625 10.8125 C-43.45465421 12.2353167 -43.45465421 12.2353167 -39.375 10.5625 C-38.4675 9.758125 -37.56 8.95375 -36.625 8.125 C-31.7787381 4.14029577 -31.7787381 4.14029577 -28.5625 4.09765625 C-26.2385481 4.3841156 -23.9360901 4.74939995 -21.625 5.125 C-16.19016639 5.74451471 -12.72829997 5.45557845 -8 2.5625 C-4.87393461 0.6575539 -3.79048813 0.13070649 0 0 Z " fill="#1B1922" transform="translate(643.625,243.875)"/>
<path d="M0 0 C9.57 0 19.14 0 29 0 C33.19215126 12.20312678 36.80537582 24.52221684 40.3125 36.9375 C40.86752658 38.89266671 41.42286313 40.84774545 41.97851562 42.80273438 C43.32257736 47.53415221 44.66246924 52.26673197 46 57 C46.1001944 56.39128555 46.20038879 55.78257111 46.30361938 55.15541077 C48.46155264 42.07755097 50.94663126 29.09170864 53.6875 16.125 C53.8435672 15.38073761 53.9996344 14.63647522 54.16043091 13.86965942 C54.60640537 11.74806718 55.05795737 9.62775135 55.51171875 7.5078125 C55.77428467 6.27691895 56.03685059 5.04602539 56.30737305 3.77783203 C57 1 57 1 58 0 C59.63472882 -0.08700342 61.27314055 -0.10701063 62.91015625 -0.09765625 C63.89951172 -0.09443359 64.88886719 -0.09121094 65.90820312 -0.08789062 C66.94912109 -0.07951172 67.99003906 -0.07113281 69.0625 -0.0625 C70.62967773 -0.05573242 70.62967773 -0.05573242 72.22851562 -0.04882812 C74.81906936 -0.03699911 77.40949746 -0.01967834 80 0 C78.45953461 9.98535771 76.42658889 19.845086 74.33984375 29.7265625 C73.98623456 31.40852987 73.63276723 33.09052708 73.2794342 34.77255249 C72.54397658 38.27075566 71.80669958 41.76856898 71.06811523 45.26611328 C70.12071974 49.75330141 69.17815266 54.24148832 68.23692989 58.72997475 C67.51059148 62.19096411 66.7816487 65.65140091 66.05191231 69.11167526 C65.70301094 70.76775063 65.35494759 72.42400278 65.0077343 74.08043289 C64.52466676 76.38313265 64.03808078 78.68506084 63.55053711 80.98681641 C63.40766266 81.67142944 63.26478821 82.35604248 63.11758423 83.06140137 C62.1142544 87.77149119 62.1142544 87.77149119 61 90 C51.43 90 41.86 90 32 90 C27.41106755 75.15919718 23.05923232 60.27744834 18.93383789 45.30273438 C18.5626657 43.96484294 18.1914907 42.62695227 17.8203125 41.2890625 C17.49305176 40.10006348 17.16579102 38.91106445 16.82861328 37.68603516 C16.2617918 35.10604373 16.2617918 35.10604373 15 34 C14.91548584 34.59498291 14.83097168 35.18996582 14.74389648 35.80297852 C12.09366213 54.11510865 8.23966448 72.00524428 4 90 C-3.26 90 -10.52 90 -18 90 C-17.36371283 83.63712826 -16.67521196 77.70527013 -15.32592773 71.52099609 C-15.15997101 70.73925018 -14.99401428 69.95750427 -14.82302856 69.15206909 C-14.28165491 66.6080711 -13.7327097 64.06577447 -13.18359375 61.5234375 C-12.80340648 59.74421097 -12.42369923 57.9648818 -12.04444885 56.18545532 C-11.05133573 51.53206859 -10.05176219 46.88009327 -9.05078125 42.22839355 C-8.02795275 37.46951294 -7.01131707 32.70931003 -5.99414062 27.94921875 C-4.00211056 18.63151437 -2.00267342 9.31542259 0 0 Z " fill="#26284A" transform="translate(1179,247)"/>
<path d="M0 0 C9.57 0 19.14 0 29 0 C33.68104005 15.04620016 38.23814016 30.09611507 42.47265625 45.27246094 C42.78976562 46.40071289 43.106875 47.52896484 43.43359375 48.69140625 C43.71259521 49.69373291 43.99159668 50.69605957 44.27905273 51.72875977 C44.79048172 53.94382631 44.79048172 53.94382631 46 55 C46.20753906 53.7109375 46.41507812 52.421875 46.62890625 51.09375 C49.47026828 33.92059583 53.186806 16.97728227 57 0 C64.26 0 71.52 0 79 0 C78.38594296 9.74275015 76.47603983 19.07567853 74.4375 28.59375 C74.08209891 30.27467421 73.72720866 31.9557065 73.37280273 33.63684082 C72.63354333 37.13729828 71.89023106 40.63685944 71.14355469 44.13574219 C70.18634813 48.62133039 69.23624551 53.1083844 68.28874207 57.59603119 C67.38237757 61.88744306 66.47259758 66.17812854 65.5625 70.46875 C65.38951385 71.2856279 65.21652771 72.1025058 65.03829956 72.94413757 C64.54955314 75.24897185 64.05838681 77.55327607 63.56640625 79.85742188 C63.34973801 80.88130508 63.34973801 80.88130508 63.12869263 81.9258728 C62.53792428 84.68180428 61.89242071 87.32273788 61 90 C51.43 90 41.86 90 32 90 C28.623346 79.87003799 28.623346 79.87003799 27.46606445 75.80322266 C27.07599968 74.43733505 27.07599968 74.43733505 26.67805481 73.04385376 C26.40917953 72.09352264 26.14030426 71.14319153 25.86328125 70.1640625 C25.43682564 68.66230972 25.43682564 68.66230972 25.00175476 67.13021851 C24.40656861 65.03129582 23.81249293 62.93205794 23.21948242 60.83251953 C22.30892072 57.61234197 21.39190995 54.39404475 20.47460938 51.17578125 C19.89544034 49.13031957 19.3166507 47.08475041 18.73828125 45.0390625 C18.46333328 44.076586 18.18838531 43.1141095 17.90510559 42.12246704 C17.65451889 41.23078827 17.40393219 40.3391095 17.14575195 39.42041016 C16.92385696 38.63703278 16.70196198 37.8536554 16.4733429 37.04653931 C16 35 16 35 16 32 C15.34 32 14.68 32 14 32 C14.05671875 33.17691406 14.1134375 34.35382813 14.171875 35.56640625 C14.16646279 42.49539419 12.6245228 49.17538766 11.25 55.9375 C10.9752332 57.32029155 10.70098486 58.70318621 10.42724609 60.08618164 C8.43526336 70.09226122 6.28768748 80.05735824 4 90 C-3.26 90 -10.52 90 -18 90 C-17.36371283 83.63712826 -16.67521196 77.70527013 -15.32592773 71.52099609 C-15.15997101 70.73925018 -14.99401428 69.95750427 -14.82302856 69.15206909 C-14.28165491 66.6080711 -13.7327097 64.06577447 -13.18359375 61.5234375 C-12.80340648 59.74421097 -12.42369923 57.9648818 -12.04444885 56.18545532 C-11.05133573 51.53206859 -10.05176219 46.88009327 -9.05078125 42.22839355 C-8.02795275 37.46951294 -7.01131707 32.70931003 -5.99414062 27.94921875 C-4.00211056 18.63151437 -2.00267342 9.31542259 0 0 Z " fill="#26284A" transform="translate(395,246)"/>
<path d="M0 0 C7.6569397 6.08582236 10.8485597 14.42695662 12.25 23.875 C13.78277104 40.92707787 9.23086446 59.49831057 -1.75 72.875 C-11.31987127 83.03378642 -22.2756642 87.71062187 -36.125 88.1875 C-48.0633413 87.90043946 -56.0840626 84.41216609 -64.5 76.1875 C-72.38695274 65.68047483 -72.09683785 52.110083 -70.45263672 39.61523438 C-68.21246015 26.45758896 -62.42383586 12.65606333 -51.69140625 4.265625 C-36.96229525 -6.0473054 -16.04124318 -10.03445731 0 0 Z M-35.75 20.875 C-43.91990709 31.9091804 -46.77509058 44.28789033 -45.75 57.875 C-44.49711831 61.63364508 -43.51163571 63.24030357 -40.5 65.75 C-36.94289634 67.20517877 -34.56807842 67.34388682 -30.75 66.875 C-23.05369209 62.94831229 -18.45638126 56.59005914 -15.56640625 48.609375 C-12.99580142 39.99969374 -10.78915027 29.4431732 -14.64453125 20.890625 C-16.0879858 18.62002233 -17.32428326 17.08785837 -19.75 15.875 C-26.41815813 14.92434609 -31.09322959 15.89437745 -35.75 20.875 Z " fill="#26284A" transform="translate(1150.75,251.125)"/>
<path d="M0 0 C8.94142031 7.35183448 12.97354599 15.04689627 14.15625 26.69921875 C14.63867115 44.32769166 10.10580048 62.36597083 -2.21875 75.47265625 C-11.66731502 84.37227295 -21.75286516 88.22882253 -34.7109375 88.34375 C-44.37245349 87.92459529 -53.31522779 86.03508461 -60.5859375 79.28125 C-69.47694702 68.35181391 -70.16643248 55.93540628 -68.796875 42.47265625 C-66.60487332 26.85416102 -59.46126023 12.25054538 -46.81640625 2.48046875 C-32.99566834 -6.6080485 -14.62315105 -7.7416682 0 0 Z M-36.03125 24.640625 C-42.22145835 33.59133166 -45.32952258 45.46328547 -44.1875 56.3125 C-43.00409203 60.2893948 -41.43317874 63.64093896 -38.1875 66.3125 C-34.44423231 67.61193809 -30.81287432 67.84545788 -27.03125 66.60546875 C-19.05804007 62.26620258 -15.20630125 53.7867901 -12.7109375 45.390625 C-10.50589833 36.63629038 -9.6832931 28.01385236 -14.01953125 19.90625 C-15.26870245 18.01046986 -15.26870245 18.01046986 -18.1875 16.3125 C-26.36641094 15.50801696 -30.91082478 18.0103308 -36.03125 24.640625 Z " fill="#26284A" transform="translate(162.1875,249.6875)"/>
<path d="M0 0 C1.23041016 -0.01224609 2.46082031 -0.02449219 3.72851562 -0.03710938 C16.08414772 -0.05669041 29.1024058 0.37522672 38.7578125 9.046875 C47.26541442 18.23081347 48.15591914 28.25660317 47.96875 40.33203125 C47.41124626 54.35046287 42.60610888 67.89148556 32.90625 78.15234375 C19.61702367 90.3419334 3.85564979 90.75803225 -13.125 90.4375 C-14.99281924 90.41738976 -16.86065955 90.39914705 -18.72851562 90.3828125 C-23.25704098 90.33920856 -27.78453122 90.27043567 -32.3125 90.1875 C-31.72663549 84.30738346 -30.89772955 78.61159028 -29.65429688 72.83789062 C-29.48994644 72.05789703 -29.32559601 71.27790344 -29.15626526 70.47427368 C-28.61891444 67.92982818 -28.07530161 65.38677044 -27.53125 62.84375 C-27.15365813 61.06544684 -26.77634318 59.28708487 -26.39929199 57.50866699 C-25.61192971 53.79977215 -24.82149912 50.09154866 -24.02880859 46.38378906 C-23.0110379 41.62218942 -22.00061807 36.85906502 -20.99239349 32.0954361 C-20.21623595 28.43185718 -19.43645582 24.76905689 -18.65553284 21.10649109 C-18.28125981 19.34916553 -17.90807909 17.59160697 -17.53599548 15.83381653 C-17.01788902 13.38906387 -16.49497591 10.94538973 -15.97070312 8.50195312 C-15.81690689 7.77162872 -15.66311066 7.04130432 -15.50465393 6.28884888 C-13.61094881 -2.47303052 -8.05758006 0.00407979 0 0 Z M6.6875 21.1875 C5.2589816 27.68272284 3.8353134 34.17899492 2.41503906 40.67602539 C1.93113482 42.8868832 1.44611386 45.0974969 0.95996094 47.30786133 C0.26204568 50.48195145 -0.4318709 53.65689301 -1.125 56.83203125 C-1.45310669 58.31809624 -1.45310669 58.31809624 -1.7878418 59.83418274 C-1.98804932 60.75491074 -2.18825684 61.67563873 -2.39453125 62.62426758 C-2.57218018 63.4347908 -2.7498291 64.24531403 -2.93286133 65.08039856 C-3.40115802 67.32273894 -3.40115802 67.32273894 -3.3125 70.1875 C3.26294621 70.16055145 7.85832934 69.29795367 12.9375 64.9765625 C20.33011678 57.41893196 22.76503368 47.86703006 23.125 37.5 C22.99058404 32.12336158 22.25942845 27.38782327 18.6875 23.1875 C15.9840264 21.19851585 13.79301966 21.09609186 10.54003906 21.13793945 C8.63303223 21.16247192 8.63303223 21.16247192 6.6875 21.1875 Z " fill="#26284A" transform="translate(266.3125,245.8125)"/>
<path d="M0 0 C-2.13766171 7.244298 -5.22684019 13.46718285 -9 20 C-12.22734974 19.41986558 -15.13546711 18.62281109 -18.1875 17.4375 C-25.30440567 15.03761321 -32.3209048 15.02247076 -39.2578125 18.03125 C-46.38258509 21.99300696 -51.16699452 30.61214492 -53.49609375 38.23828125 C-54.1615594 41.88544568 -54.32571175 45.49045986 -54.375 49.1875 C-54.38893799 49.86490234 -54.40287598 50.54230469 -54.41723633 51.24023438 C-54.37347271 55.87349467 -53.44384655 59.0744977 -51 63 C-47.12421844 65.36853317 -43.45920126 65.2477334 -39 65 C-38.01 64.67 -37.02 64.34 -36 64 C-34.96683512 61.20827761 -34.96683512 61.20827761 -34.3125 57.9375 C-33.879375 55.978125 -33.44625 54.01875 -33 52 C-37.29 52 -41.58 52 -46 52 C-44.52307692 34.52307692 -44.52307692 34.52307692 -42 32 C-39.1883662 31.91138008 -36.40141745 31.88477645 -33.58984375 31.90234375 C-32.74780899 31.9037587 -31.90577423 31.90517365 -31.03822327 31.90663147 C-28.33794665 31.91224737 -25.63775172 31.92480252 -22.9375 31.9375 C-21.11132932 31.94251295 -19.28515734 31.94707621 -17.45898438 31.95117188 C-12.97262458 31.96222196 -8.48632616 31.97949721 -4 32 C-7.16151609 48.7041905 -10.47376989 65.36889286 -14 82 C-30.54152772 86.55368561 -50.43222966 90.99638937 -66.3125 82.375 C-73.9995578 77.33570655 -77.91531738 70.85300235 -80 62 C-80.42879776 58.09436993 -80.47711435 54.23899946 -80.4375 50.3125 C-80.42920166 49.25321289 -80.42090332 48.19392578 -80.41235352 47.10253906 C-80.08938123 32.07340886 -75.65759208 18.79309822 -65.1875 7.625 C-47.51509269 -8.7850925 -21.18381724 -10.11045823 0 0 Z " fill="#26284A" transform="translate(93,251)"/>
<path d="M0 0 C17.82 0 35.64 0 54 0 C52.86453577 11.35464231 52.86453577 11.35464231 52 15.5625 C51.835 16.38878906 51.67 17.21507812 51.5 18.06640625 C51 20 51 20 50 21 C47.85441173 21.08775605 45.70595579 21.10695219 43.55859375 21.09765625 C42.25341797 21.09443359 40.94824219 21.09121094 39.60351562 21.08789062 C38.2148431 21.07953401 36.82617123 21.07106905 35.4375 21.0625 C34.04492344 21.05748666 32.65234519 21.05292347 31.25976562 21.04882812 C27.83982549 21.03699442 24.4199075 21.01905831 21 21 C20.34 25.29 19.68 29.58 19 34 C27.58 34 36.16 34 45 34 C44 43 44 43 41 54 C32.09 54 23.18 54 14 54 C13.01 59.28 12.02 64.56 11 70 C20.57 70 30.14 70 40 70 C38.68 76.6 37.36 83.2 36 90 C18.18 90 0.36 90 -18 90 C-17.36371283 83.63712826 -16.67521196 77.70527013 -15.32592773 71.52099609 C-15.15997101 70.73925018 -14.99401428 69.95750427 -14.82302856 69.15206909 C-14.28165491 66.6080711 -13.7327097 64.06577447 -13.18359375 61.5234375 C-12.80340648 59.74421097 -12.42369923 57.9648818 -12.04444885 56.18545532 C-11.05133573 51.53206859 -10.05176219 46.88009327 -9.05078125 42.22839355 C-7.84770466 36.63087859 -6.65275751 31.03162313 -5.45642853 25.43266296 C-3.64380256 16.95376792 -1.82094205 8.47713214 0 0 Z " fill="#26284A" transform="translate(858,247)"/>
<path d="M0 0 C1.40897804 0.00333092 1.40897804 0.00333092 2.84642029 0.00672913 C3.90744461 0.00680466 4.96846893 0.00688019 6.06164551 0.00695801 C7.79286903 0.01469994 7.79286903 0.01469994 9.55906677 0.02259827 C10.73404221 0.02401321 11.90901764 0.02542816 13.11959839 0.02688599 C16.88981116 0.0325046 20.65996556 0.04506026 24.43016052 0.05775452 C26.97898779 0.06276712 29.52781599 0.06733044 32.0766449 0.07142639 C38.34033685 0.08248007 44.60399452 0.0992363 50.86766052 0.12025452 C50.71257231 1.72184856 50.55604545 3.32330334 50.39891052 4.92469788 C50.3118988 5.81652267 50.22488708 6.70834747 50.13523865 7.62719727 C49.84337226 10.34655114 49.41805439 13.00388437 48.86766052 15.68275452 C48.70266052 16.50904358 48.53766052 17.33533264 48.36766052 18.18666077 C47.86766052 20.12025452 47.86766052 20.12025452 46.86766052 21.12025452 C44.72207226 21.20801057 42.57361631 21.22720671 40.42625427 21.21791077 C39.12107849 21.21468811 37.81590271 21.21146545 36.47117615 21.20814514 C35.08250362 21.19978853 33.69383175 21.19132357 32.30516052 21.18275452 C30.91258396 21.17774118 29.52000571 21.17317798 28.12742615 21.16908264 C24.70746182 21.15724885 21.28758208 21.14076332 17.86766052 21.12025452 C17.80707458 21.72353577 17.74648865 22.32681702 17.68406677 22.94837952 C17.60027771 23.74759827 17.51648865 24.54681702 17.43016052 25.37025452 C17.34894958 26.15916077 17.26773865 26.94806702 17.18406677 27.76087952 C16.86766052 30.12025452 16.86766052 30.12025452 15.86766052 34.12025452 C24.44766052 34.12025452 33.02766052 34.12025452 41.86766052 34.12025452 C40.86766052 44.12025452 40.86766052 44.12025452 37.86766052 54.12025452 C28.95766052 54.12025452 20.04766052 54.12025452 10.86766052 54.12025452 C10.20766052 58.41025452 9.54766052 62.70025452 8.86766052 67.12025452 C8.53766052 68.11025452 8.20766052 69.10025452 7.86766052 70.12025452 C17.43766052 70.12025452 27.00766052 70.12025452 36.86766052 70.12025452 C35.54766052 76.72025452 34.22766052 83.32025452 32.86766052 90.12025452 C15.04766052 90.12025452 -2.77233948 90.12025452 -21.13233948 90.12025452 C-20.47307527 84.18687665 -19.72217205 78.56571829 -18.47413635 72.77064514 C-18.30978592 71.99065155 -18.14543549 71.21065796 -17.97610474 70.4070282 C-17.43875392 67.86258269 -16.89514109 65.31952496 -16.35108948 62.77650452 C-15.97349761 60.99820136 -15.59618266 59.21983938 -15.21913147 57.44142151 C-14.43176919 53.73252666 -13.6413386 50.02430318 -12.84864807 46.31654358 C-11.83087737 41.55494393 -10.82045754 36.79181954 -9.81223297 32.02819061 C-9.03607542 28.36461169 -8.2562953 24.70181141 -7.47537231 21.03924561 C-7.10109929 19.28192004 -6.72791857 17.52436148 -6.35583496 15.76657104 C-5.83772849 13.32181838 -5.31481539 10.87814425 -4.7905426 8.43470764 C-4.63674637 7.70438324 -4.48295013 6.97405884 -4.32449341 6.22160339 C-3.01658668 0.17012215 -3.01658668 0.17012215 0 0 Z " fill="#26284A" transform="translate(334.13233947753906,245.87974548339844)"/>
<path d="M0 0 C-0.64985095 4.71370756 -2.51561392 8.57686444 -4.5625 12.8125 C-4.89185547 13.50537109 -5.22121094 14.19824219 -5.56054688 14.91210938 C-6.36872251 16.61044948 -7.18368377 18.30555769 -8 20 C-8.68964844 19.72285156 -9.37929688 19.44570313 -10.08984375 19.16015625 C-19.94361778 15.06081379 -19.94361778 15.06081379 -30.1953125 15.84765625 C-32.21644438 16.89309369 -32.21644438 16.89309369 -32.9375 19.3125 C-33.02005337 22.86229476 -32.06115244 24.10930777 -30 27 C-27.90556392 28.87338741 -25.82192949 30.63451934 -23.625 32.375 C-17.00868961 37.80257723 -12.38885229 42.48456531 -10 51 C-9.13011892 60.73814926 -9.60502823 68.78920882 -15.5625 76.6875 C-22.3619395 84.0409679 -31.97261955 86.41263686 -41.6171875 87.21875 C-48.96203227 87.47422286 -56.00993995 86.25276471 -63 84 C-63.94488281 83.7009375 -64.88976562 83.401875 -65.86328125 83.09375 C-68.51913826 80.49130144 -68.35896609 79.53215411 -68.48828125 75.89453125 C-68.4550367 73.86661342 -68.39539629 71.83899553 -68.3125 69.8125 C-68.28994141 68.77673828 -68.26738281 67.74097656 -68.24414062 66.67382812 C-68.18516846 64.11443596 -68.10292567 61.55794049 -68 59 C-64.42355818 59.67419527 -61.29627614 60.58796428 -57.9375 62 C-51.85528276 64.54909567 -46.61817932 65.66788966 -40 65 C-37.38017854 64.01919106 -37.38017854 64.01919106 -36 62 C-35.33256123 59.58655333 -35.33256123 59.58655333 -36 57 C-38.70660261 53.17450162 -41.73596771 50.46917322 -45.4375 47.625 C-52.08233346 42.29141368 -56.8988865 36.85328756 -58.51953125 28.23828125 C-59.48351334 18.61131344 -58.21029583 10.52169608 -52.01171875 2.82421875 C-38.36293323 -9.55244696 -15.30085286 -8.9254975 0 0 Z " fill="#26284A" transform="translate(846,252)"/>
<path d="M0 0 C1.02975197 0.01077827 1.02975197 0.01077827 2.08030701 0.02177429 C2.78537888 0.02223251 3.49045074 0.02269073 4.21688843 0.02316284 C5.70726708 0.02618442 7.1976426 0.03406794 8.68797302 0.0464325 C10.97706709 0.06469849 13.26575703 0.06694213 15.55491638 0.06669617 C17.00088344 0.07161098 18.44684775 0.07743915 19.89280701 0.08427429 C20.92559532 0.08594353 20.92559532 0.08594353 21.97924805 0.08764648 C26.80409576 0.13618805 26.80409576 0.13618805 27.92015076 1.25224304 C28.0772973 2.88481062 28.17100489 4.52359642 28.23655701 6.16239929 C28.27845154 7.15175476 28.32034607 8.14111023 28.36351013 9.16044617 C28.40282654 10.20136414 28.44214294 11.2422821 28.48265076 12.31474304 C28.52583435 13.3595282 28.56901794 14.40431335 28.61351013 15.48075867 C28.719963 18.07111188 28.82197835 20.6615649 28.92015076 23.25224304 C30.6665024 23.78518139 32.41742728 24.30314967 34.17015076 24.81474304 C35.14468201 25.1047821 36.11921326 25.39482117 37.12327576 25.69364929 C39.99734541 26.26766041 41.22953589 26.27972813 43.92015076 25.25224304 C45.77146451 22.10169717 47.31393948 18.93990896 48.83226013 15.62333679 C51.35395123 10.4605846 51.35395123 10.4605846 54.25828552 9.39189148 C57.53748637 9.219856 58.84390591 9.94163832 61.60765076 11.67411804 C62.90315857 12.47075867 62.90315857 12.47075867 64.22483826 13.28349304 C65.11429138 13.85068054 66.00374451 14.41786804 66.92015076 15.00224304 C67.80960388 15.55396179 68.69905701 16.10568054 69.61546326 16.67411804 C71.27978061 17.70748524 72.94039059 18.74686584 74.59593201 19.79423523 C76.25534308 20.83520192 77.9427264 21.83211156 79.64671326 22.79838562 C81.92015076 24.25224304 81.92015076 24.25224304 82.98265076 26.46708679 C82.89015537 30.58891245 81.0114416 33.33950973 78.92015076 36.81474304 C75.90739692 41.27148477 75.90739692 41.27148477 75.21287537 46.33695984 C76.16062716 48.90344682 77.64032865 50.4924371 79.48265076 52.50224304 C80.12331482 53.20864929 80.76397888 53.91505554 81.42405701 54.64286804 C81.91776794 55.17396179 82.41147888 55.70505554 82.92015076 56.25224304 C87.88253551 55.40732861 91.75716628 52.38119789 95.94749451 49.74833679 C98.9663249 48.22900428 100.6054036 47.91649517 103.92015076 48.25224304 C106.12500272 52.15728085 108.32507755 56.06476105 110.51390076 59.97880554 C111.94500649 62.53418976 113.40000184 65.06532405 114.88890076 67.58818054 C115.43546326 68.52919617 115.98202576 69.47021179 116.54515076 70.43974304 C117.03241638 71.25829773 117.51968201 72.07685242 118.02171326 72.92021179 C119.11921843 75.76895348 118.77120269 77.36584403 117.92015076 80.25224304 C115.60374451 80.52177429 115.60374451 80.52177429 112.92015076 80.25224304 C111.33030701 78.45146179 111.33030701 78.45146179 109.98265076 75.93974304 C109.48636169 75.03611023 108.99007263 74.13247742 108.47874451 73.20146179 C107.96440857 72.2282196 107.45007263 71.25497742 106.92015076 70.25224304 C106.35425232 69.24806335 105.78835388 68.24388367 105.20530701 67.20927429 C100.92015076 59.57665481 100.92015076 59.57665481 100.92015076 57.25224304 C98.60652867 58.56279801 96.29422398 59.87558334 93.98265076 61.18974304 C93.32329529 61.56292664 92.66393982 61.93611023 91.98460388 62.32060242 C88.76182243 64.02187117 88.76182243 64.02187117 85.92015076 66.25224304 C83.10374451 66.59989929 83.10374451 66.59989929 79.92015076 66.25224304 C77.83030701 64.31083679 77.83030701 64.31083679 75.98265076 61.68974304 C72.98919026 57.59251622 69.96966843 54.25840654 66.07249451 51.01786804 C64.92015076 49.25224304 64.92015076 49.25224304 64.98265076 46.54130554 C66.14332469 42.46927449 67.9186582 39.05606915 69.98265076 35.37724304 C70.35970154 34.68888367 70.73675232 34.00052429 71.12522888 33.29130554 C72.0490811 31.60732175 72.98354743 29.92916837 73.92015076 28.25224304 C73.22534607 27.99700867 72.53054138 27.74177429 71.81468201 27.47880554 C66.57165731 25.25706498 61.81074545 22.15435418 56.92015076 19.25224304 C53.62015076 24.86224304 50.32015076 30.47224304 46.92015076 36.25224304 C39.03490094 35.12577878 39.03490094 35.12577878 35.33421326 34.09599304 C34.54917419 33.87814148 33.76413513 33.66028992 32.95530701 33.43583679 C32.15995544 33.21025085 31.36460388 32.98466492 30.54515076 32.75224304 C29.31731873 32.41386414 29.31731873 32.41386414 28.06468201 32.06864929 C22.05118114 30.38327343 22.05118114 30.38327343 20.92015076 29.25224304 C20.83329473 27.69051559 20.81312856 26.1249496 20.82249451 24.56083679 C20.82499207 23.71061951 20.82748962 22.86040222 20.83006287 21.98442078 C20.83916687 20.89717712 20.84827087 19.80993347 20.85765076 18.68974304 C20.87827576 15.24536804 20.89890076 11.80099304 20.92015076 8.25224304 C13.99015076 8.25224304 7.06015076 8.25224304 -0.07984924 8.25224304 C-0.07984924 15.18224304 -0.07984924 22.11224304 -0.07984924 29.25224304 C-4.09232597 30.85723373 -7.93524819 32.14014167 -12.07984924 33.31474304 C-13.27609924 33.6563446 -14.47234924 33.99794617 -15.70484924 34.34989929 C-17.37547424 34.79655945 -17.37547424 34.79655945 -19.07984924 35.25224304 C-19.96672424 35.53970398 -20.85359924 35.82716492 -21.76734924 36.12333679 C-24.07984924 36.25224304 -24.07984924 36.25224304 -26.15797424 34.73661804 C-28.42786718 31.80236619 -30.11850637 28.79328703 -31.82984924 25.50224304 C-32.14566956 24.90025085 -32.46148987 24.29825867 -32.78688049 23.67802429 C-33.55782819 22.20621504 -34.31977248 20.72969562 -35.07984924 19.25224304 C-39.12286099 20.73743103 -42.69131181 22.68102302 -46.39234924 24.87724304 C-47.46098206 25.50888367 -48.52961487 26.14052429 -49.63063049 26.79130554 C-50.43887268 27.27341492 -51.24711487 27.75552429 -52.07984924 28.25224304 C-51.50234924 29.34923523 -50.92484924 30.44622742 -50.32984924 31.57646179 C-49.57931852 33.03061507 -48.8293478 34.48505749 -48.07984924 35.93974304 C-47.69828674 36.66097351 -47.31672424 37.38220398 -46.92359924 38.12528992 C-43.23327223 45.34119719 -43.23327223 45.34119719 -44.07984924 49.25224304 C-45.58375549 50.95536804 -45.58375549 50.95536804 -47.64234924 52.50224304 C-51.68542273 55.73242345 -54.40900214 59.21966077 -57.24391174 63.52958679 C-59.07984924 65.25224304 -59.07984924 65.25224304 -61.86891174 65.75224304 C-65.81462117 65.137826 -68.57897445 63.5006761 -71.82984924 61.31474304 C-72.97027094 60.57614778 -74.11088742 59.83785318 -75.25172424 59.09989929 C-76.18500549 58.49017273 -77.11828674 57.88044617 -78.07984924 57.25224304 C-78.73984924 56.92224304 -79.39984924 56.59224304 -80.07984924 56.25224304 C-80.31059143 57.05919617 -80.54133362 57.86614929 -80.77906799 58.69755554 C-82.39911923 63.1247226 -84.54589269 67.04945404 -86.89234924 71.12724304 C-87.53140198 72.30286804 -87.53140198 72.30286804 -88.18336487 73.50224304 C-89.37575919 75.57314876 -90.50559257 77.45392828 -92.07984924 79.25224304 C-94.84156799 79.82255554 -94.84156799 79.82255554 -97.07984924 79.25224304 C-98.07984924 78.25224304 -98.07984924 78.25224304 -98.31568909 76.02812195 C-98.03004218 72.66600466 -96.99418484 70.75203055 -95.30641174 67.83818054 C-94.72891174 66.83013367 -94.15141174 65.82208679 -93.55641174 64.78349304 C-92.94539612 63.74193054 -92.33438049 62.70036804 -91.70484924 61.62724304 C-91.10156799 60.57794617 -90.49828674 59.52864929 -89.87672424 58.44755554 C-87.68852528 54.65467733 -85.50923393 50.89632008 -83.07984924 47.25224304 C-76.62945473 47.39558514 -72.81138697 50.1459374 -67.63063049 53.85380554 C-65.26256992 55.42607915 -65.26256992 55.42607915 -63.01344299 55.21708679 C-60.44555382 53.93573603 -58.80560704 52.26428873 -56.82984924 50.18974304 C-56.12344299 49.45626648 -55.41703674 48.72278992 -54.68922424 47.96708679 C-54.15813049 47.40118835 -53.62703674 46.83528992 -53.07984924 46.25224304 C-53.65734924 45.16685242 -54.23484924 44.08146179 -54.82984924 42.96318054 C-55.58048851 41.51819995 -56.33045309 40.07286873 -57.07984924 38.62724304 C-57.46141174 37.91439148 -57.84297424 37.20153992 -58.23609924 36.46708679 C-62.21788166 28.71683174 -62.21788166 28.71683174 -61.07984924 24.25224304 C-58.87859262 22.13430724 -56.36316969 20.73102814 -53.70484924 19.25224304 C-52.97548157 18.82653015 -52.24611389 18.40081726 -51.49464417 17.96220398 C-50.03480415 17.11048266 -48.5705624 16.26625693 -47.1018219 15.42997742 C-43.70088131 13.44903835 -40.45461711 11.21922668 -37.19313049 9.01786804 C-35.07984924 8.25224304 -35.07984924 8.25224304 -32.57984924 8.64286804 C-28.96575212 10.96944307 -27.63352306 13.96323739 -25.76734924 17.75224304 C-25.40834534 18.44189148 -25.04934143 19.13153992 -24.67945862 19.84208679 C-22.07984924 24.92246626 -22.07984924 24.92246626 -22.07984924 27.25224304 C-21.16461487 26.96349304 -20.24938049 26.67474304 -19.30641174 26.37724304 C-18.11789612 26.00599304 -16.92938049 25.63474304 -15.70484924 25.25224304 C-14.52148987 24.88099304 -13.33813049 24.50974304 -12.11891174 24.12724304 C-9.07984924 23.25224304 -9.07984924 23.25224304 -7.07984924 23.25224304 C-7.09032288 22.62656433 -7.10079651 22.00088562 -7.11158752 21.35624695 C-7.15308116 18.52995294 -7.17915397 15.70372293 -7.20484924 12.87724304 C-7.22160706 11.89239929 -7.23836487 10.90755554 -7.25563049 9.89286804 C-7.26207581 8.95185242 -7.26852112 8.01083679 -7.27516174 7.04130554 C-7.28563538 6.17199402 -7.29610901 5.3026825 -7.30690002 4.4070282 C-6.8224394 -0.19065938 -3.94436407 0.01904225 0 0 Z " fill="#1B1922" transform="translate(621.0798492431641,164.7477569580078)"/>
<path d="M0 0 C1.2065625 0.0309375 1.2065625 0.0309375 2.4375 0.0625 C3.67967238 4.99698872 3.25440735 7.3714249 0.796875 11.79296875 C0.22066406 12.84291016 -0.35554687 13.89285156 -0.94921875 14.97460938 C-1.56410156 16.05548828 -2.17898438 17.13636719 -2.8125 18.25 C-3.41191406 19.34248047 -4.01132812 20.43496094 -4.62890625 21.56054688 C-9.76078292 30.79451121 -9.76078292 30.79451121 -12.5625 33.0625 C-17.43090203 33.00196925 -21.37355953 30.00042165 -25.375 27.5 C-26.06787109 27.07525391 -26.76074219 26.65050781 -27.47460938 26.21289062 C-29.17466951 25.16940544 -30.86915476 24.11684704 -32.5625 23.0625 C-32.81773437 23.64515625 -33.07296875 24.2278125 -33.3359375 24.828125 C-34.67991087 27.27638223 -36.18060296 28.87993248 -38.1875 30.8125 C-38.81914063 31.42609375 -39.45078125 32.0396875 -40.1015625 32.671875 C-40.58367187 33.13078125 -41.06578125 33.5896875 -41.5625 34.0625 C-40.99660156 35.07570313 -40.43070313 36.08890625 -39.84765625 37.1328125 C-39.10631207 38.48412342 -38.36545219 39.83570011 -37.625 41.1875 C-37.25181641 41.85265625 -36.87863281 42.5178125 -36.49414062 43.203125 C-34.33749602 47.16668806 -33.01069092 50.49522113 -32.5625 55.0625 C-38.34222693 59.29190018 -44.2808103 63.2417293 -50.375 67 C-51.00865479 67.4014624 -51.64230957 67.8029248 -52.29516602 68.21655273 C-55.7784168 70.33225397 -58.45551693 71.93477959 -62.5625 71.0625 C-63.96875 69.62890625 -63.96875 69.62890625 -65.0625 67.625 C-65.46855469 66.90441406 -65.87460937 66.18382812 -66.29296875 65.44140625 C-66.71191406 64.65636719 -67.13085938 63.87132812 -67.5625 63.0625 C-68.49987807 61.39576475 -69.4373746 59.72909613 -70.375 58.0625 C-71.10633095 56.73035254 -71.83630859 55.39745612 -72.5625 54.0625 C-73.39394531 54.2790625 -74.22539063 54.495625 -75.08203125 54.71875 C-76.16871094 54.9971875 -77.25539063 55.275625 -78.375 55.5625 C-79.45394531 55.8409375 -80.53289062 56.119375 -81.64453125 56.40625 C-84.5625 57.0625 -84.5625 57.0625 -87.5625 57.0625 C-87.55726318 57.7237085 -87.55202637 58.38491699 -87.54663086 59.06616211 C-87.52592344 62.04409851 -87.51285988 65.02201982 -87.5 68 C-87.49162109 69.04091797 -87.48324219 70.08183594 -87.47460938 71.15429688 C-87.47138672 72.14365234 -87.46816406 73.13300781 -87.46484375 74.15234375 C-87.45960693 75.06878662 -87.45437012 75.98522949 -87.44897461 76.92944336 C-87.5625 79.0625 -87.5625 79.0625 -88.5625 80.0625 C-91.01080426 80.15093793 -93.43070599 80.17778752 -95.87890625 80.16015625 C-96.97548805 80.15803383 -96.97548805 80.15803383 -98.09422302 80.15586853 C-100.43785632 80.15025408 -102.78139539 80.13769922 -105.125 80.125 C-106.71028508 80.11998686 -108.29557166 80.11542363 -109.88085938 80.11132812 C-113.7747761 80.10027997 -117.66862205 80.08300572 -121.5625 80.0625 C-122.7888757 77.60974859 -122.67665314 76.0119219 -122.66015625 73.2734375 C-122.65532227 71.86191406 -122.65532227 71.86191406 -122.65039062 70.421875 C-122.63782227 68.94460938 -122.63782227 68.94460938 -122.625 67.4375 C-122.62048828 66.44492187 -122.61597656 65.45234375 -122.61132812 64.4296875 C-122.59952145 61.9738984 -122.583054 59.51822896 -122.5625 57.0625 C-123.738125 56.918125 -124.91375 56.77375 -126.125 56.625 C-129.94462272 56.14839824 -133.75360019 55.61796456 -137.5625 55.0625 C-138.11679687 56.12210937 -138.67109375 57.18171875 -139.2421875 58.2734375 C-139.97376555 59.66155995 -140.70554698 61.04957523 -141.4375 62.4375 C-141.80230469 63.13617188 -142.16710937 63.83484375 -142.54296875 64.5546875 C-145.3359375 69.8359375 -145.3359375 69.8359375 -147.5625 72.0625 C-152.12324799 71.76874744 -155.13247776 70.40482419 -158.92578125 67.9375 C-159.89451172 67.31359375 -160.86324219 66.6896875 -161.86132812 66.046875 C-163.3530957 65.06460938 -163.3530957 65.06460938 -164.875 64.0625 C-165.88884766 63.40765625 -166.90269531 62.7528125 -167.94726562 62.078125 C-175.34005952 57.28494048 -175.34005952 57.28494048 -176.5625 56.0625 C-177.23275542 50.48262359 -175.38801593 47.25987206 -172.5625 42.6875 C-171.99015625 41.72650391 -171.99015625 41.72650391 -171.40625 40.74609375 C-170.46999848 39.17787245 -169.51782843 37.61917355 -168.5625 36.0625 C-168.96082031 35.60359375 -169.35914063 35.1446875 -169.76953125 34.671875 C-172.47392062 31.53978415 -175.14241771 28.42372541 -177.5625 25.0625 C-182.71833853 26.93303442 -187.09842535 29.78939376 -191.72265625 32.69921875 C-194.5625 34.0625 -194.5625 34.0625 -196.765625 33.98828125 C-202.8892339 30.83329145 -206.24199501 21.18253784 -209.4375 15.3125 C-209.84315186 14.57966797 -210.24880371 13.84683594 -210.66674805 13.09179688 C-212.68704114 9.29480749 -214.13786186 6.49104282 -213.5625 2.0625 C-211.5825 1.7325 -209.6025 1.4025 -207.5625 1.0625 C-203.6025 8.3225 -199.6425 15.5825 -195.5625 23.0625 C-189.88957966 21.92791593 -186.91018456 19.75060167 -182.28125 16.4609375 C-179.5625 15.0625 -179.5625 15.0625 -177.06640625 14.984375 C-173.5304821 16.5068634 -171.43069857 19.05842015 -169 21.9375 C-165.47349524 26.14553824 -165.47349524 26.14553824 -161.22265625 29.5703125 C-159.5625 31.0625 -159.5625 31.0625 -159.0625 33.7578125 C-159.71469646 38.06842345 -161.41501751 41.19183321 -163.5625 44.9375 C-164.8825 47.28875 -166.2025 49.64 -167.5625 52.0625 C-162.2825 55.3625 -157.0025 58.6625 -151.5625 62.0625 C-148.35450733 57.78517644 -145.97345508 53.35898367 -143.4765625 48.64453125 C-141.5625 46.0625 -141.5625 46.0625 -139.26049805 45.32519531 C-136.28014151 45.03500767 -134.33851075 45.41817775 -131.48046875 46.27734375 C-130.6402417 46.52347412 -129.80001465 46.76960449 -128.93432617 47.02319336 C-127.88349854 47.34553955 -126.8326709 47.66788574 -125.75 48 C-122.388125 49.010625 -119.02625 50.02125 -115.5625 51.0625 C-115.5625 58.3225 -115.5625 65.5825 -115.5625 73.0625 C-108.6325 73.0625 -101.7025 73.0625 -94.5625 73.0625 C-94.64158542 66.24129589 -94.64158542 66.24129589 -94.74267578 59.42041016 C-94.7476709 58.57269043 -94.75266602 57.7249707 -94.7578125 56.8515625 C-94.76828613 55.98225098 -94.77875977 55.11293945 -94.78955078 54.21728516 C-94.5625 52.0625 -94.5625 52.0625 -92.5625 50.0625 C-90.18671817 49.31897904 -87.84898577 48.66296666 -85.4375 48.0625 C-84.76259521 47.88879883 -84.08769043 47.71509766 -83.39233398 47.53613281 C-81.45079934 47.0380758 -79.50670006 46.55004863 -77.5625 46.0625 C-76.19158203 45.71445312 -76.19158203 45.71445312 -74.79296875 45.359375 C-73.05124536 44.92002135 -71.30722469 44.48977951 -69.5625 44.0625 C-59.5625 58.7625 -59.5625 58.7625 -59.5625 62.0625 C-53.9525 58.7625 -48.3425 55.4625 -42.5625 52.0625 C-44.34810716 46.70567852 -46.27863974 43.13351327 -49.3203125 38.52734375 C-50.79631234 35.59855161 -51.23988282 34.28743125 -50.5625 31.0625 C-48.69859642 28.85863916 -46.92289733 26.99621291 -44.8125 25.0625 C-43.73207114 24.04410534 -42.65390566 23.02330356 -41.578125 22 C-40.8056543 21.26716797 -40.8056543 21.26716797 -40.01757812 20.51953125 C-38.01057361 18.50983277 -36.27545599 16.32426713 -34.5625 14.0625 C-29.78877223 14.57019335 -26.82809947 15.87196647 -22.875 18.5625 C-20.03984216 20.4761335 -17.81271526 21.97909491 -14.5625 23.0625 C-14.32660156 22.41796875 -14.09070313 21.7734375 -13.84765625 21.109375 C-12.13371876 17.04593658 -10.07539008 13.20098758 -8 9.3125 C-7.58814453 8.53261719 -7.17628906 7.75273437 -6.75195312 6.94921875 C-3.09997445 0.07560913 -3.09997445 0.07560913 0 0 Z " fill="#1B1922" transform="translate(736.5625,330.9375)"/>
<path d="M0 0 C8.25 0 16.5 0 25 0 C24.37348351 5.01213191 23.72720739 9.70022127 22.69311523 14.59960938 C22.43292099 15.84029175 22.17272675 17.08097412 21.90464783 18.35925293 C21.62270037 19.6874336 21.3406807 21.01559895 21.05859375 22.34375 C20.76827492 23.72231146 20.47824566 25.10093393 20.18849182 26.47961426 C19.43021824 30.08374227 18.66804888 33.68703533 17.9050293 37.29016113 C17.12505915 40.97679288 16.34879017 44.66420373 15.57226562 48.3515625 C14.05215056 55.5685574 12.52592492 62.78422153 11 70 C20.24 70 29.48 70 39 70 C37.86694102 81.33058985 37.86694102 81.33058985 37 85.0625 C36.835 85.79597656 36.67 86.52945313 36.5 87.28515625 C36 89 36 89 35 90 C33.31198015 90.09353163 31.62004793 90.11744791 29.92944336 90.11352539 C28.84839828 90.11344986 27.76735321 90.11337433 26.65354919 90.11329651 C24.889515 90.10555458 24.889515 90.10555458 23.08984375 90.09765625 C21.89267227 90.0962413 20.69550079 90.09482635 19.46205139 90.09336853 C15.62050934 90.08774979 11.77902457 90.07519411 7.9375 90.0625 C5.34049563 90.05748741 2.74349035 90.05292409 0.14648438 90.04882812 C-6.23569679 90.03777427 -12.6178443 90.02101792 -19 90 C-17.41123358 82.25159398 -15.81998538 74.50370289 -14.22590446 66.75638866 C-13.48508564 63.15561285 -12.74499823 59.55469056 -12.00683594 55.95336914 C-8.17476958 37.26088318 -4.18798745 18.61681351 0 0 Z " fill="#26284A" transform="translate(193,246)"/>
<path d="M0 0 C6.88584981 3.9683063 11.15645248 9.33945521 13.5625 16.9375 C15.15811766 25.80647483 14.75967259 33.33657041 9.87890625 41.20703125 C5.06622539 47.53349303 -0.64838037 51.36836701 -8.4375 52.9375 C-15.08958926 53.65022385 -21.20178931 52.21656579 -26.68359375 48.35546875 C-32.03469164 43.84876429 -32.03469164 43.84876429 -33.57592773 40.36206055 C-35.28604536 37.58140651 -35.28604536 37.58140651 -38.80737305 37.27807617 C-40.18746922 37.23702988 -41.56853372 37.22278171 -42.94921875 37.23046875 C-44.04155571 37.20778679 -44.04155571 37.20778679 -45.15596008 37.18464661 C-47.47928655 37.14169734 -49.80131578 37.13292574 -52.125 37.125 C-53.70120654 37.10186094 -55.27738209 37.07649682 -56.85351562 37.04882812 C-60.71555339 36.9817153 -64.57395775 36.96083826 -68.4375 36.9375 C-68.4375 29.0175 -68.4375 21.0975 -68.4375 12.9375 C-66.12492188 12.958125 -63.81234375 12.97875 -61.4296875 13 C-59.1755775 12.9927708 -56.92197542 12.97188842 -54.66796875 12.94970703 C-53.10840712 12.94162473 -51.54870369 12.94761332 -49.98925781 12.96826172 C-41.08663791 13.41108099 -41.08663791 13.41108099 -33.19116211 10.19311523 C-31.72690603 8.17228004 -30.58721229 6.14706843 -29.4375 3.9375 C-27.20703125 2.09765625 -27.20703125 2.09765625 -25.25 1 C-24.59644531 0.61972656 -23.94289063 0.23945313 -23.26953125 -0.15234375 C-16.1642033 -3.6822828 -7.1053958 -3.29353453 0 0 Z M-20.98046875 15.4765625 C-24.12498962 18.62608261 -24.49782352 20.53202926 -24.8125 24.9375 C-24.48506451 29.25411429 -24.06087898 31.25630341 -21.12109375 34.46875 C-18.21508213 36.46144368 -15.82532409 37.94995614 -12.4375 38.9375 C-9.78148007 38.29593395 -9.78148007 38.29593395 -7.4375 36.9375 C-6.77105469 36.67453125 -6.10460937 36.4115625 -5.41796875 36.140625 C-3.17547661 34.94853768 -1.95037519 34.00164205 -0.4375 31.9375 C0.8465229 27.00636982 0.96485572 22.848561 -0.4375 17.9375 C-3.69043382 14.64813332 -7.18247871 12.70323427 -11.4375 10.9375 C-14.77425854 10.9375 -18.29875317 13.75435984 -20.98046875 15.4765625 Z M-37.4375 20.9375 C-38.0975 21.5975 -38.7575 22.2575 -39.4375 22.9375 C-39.11551034 26.03676819 -39.11551034 26.03676819 -38.4375 28.9375 C-36.60049211 29.70992269 -36.60049211 29.70992269 -34.4375 29.9375 C-32.50095052 28.91779682 -32.50095052 28.91779682 -31.4375 26.9375 C-31.66793864 24.28283951 -31.66793864 24.28283951 -32.4375 21.9375 C-34.83469432 21.25791397 -34.83469432 21.25791397 -37.4375 20.9375 Z " fill="#EED36D" transform="translate(748.4375,263.0625)"/>
<path d="M0 0 C8.25 0 16.5 0 25 0 C24.39935043 6.60714527 23.84121809 12.68246874 22.43359375 19.07006836 C22.27899689 19.79676727 22.12440002 20.52346619 21.96511841 21.27218628 C21.46205077 23.62943666 20.94991994 25.98461044 20.4375 28.33984375 C20.08205477 29.99594102 19.72716542 31.65215769 19.37280273 33.30848694 C18.44517676 37.63668339 17.50971225 41.96314879 16.57263184 46.28930664 C15.61883453 50.70023794 14.67323291 55.11292544 13.7265625 59.52539062 C12.34372037 65.96299541 10.95899211 72.40018861 9.56640625 78.83569336 C9.42196075 79.50533615 9.27751526 80.17497894 9.12869263 80.86491394 C8.46532458 83.92481761 7.75955893 86.96176428 7 90 C-1.58 90 -10.16 90 -19 90 C-17.41097462 82.25164657 -15.81998547 74.50370334 -14.22590446 66.75638866 C-13.48508564 63.15561285 -12.74499823 59.55469056 -12.00683594 55.95336914 C-8.17476958 37.26088318 -4.18798745 18.61681351 0 0 Z " fill="#26284A" transform="translate(1056,247)"/>
<path d="M0 0 C5.04971982 2.87850479 8.95254761 6.71759522 11.5625 11.9375 C25.4225 12.4325 25.4225 12.4325 39.5625 12.9375 C39.5625 20.8575 39.5625 28.7775 39.5625 36.9375 C30.3225 36.9375 21.0825 36.9375 11.5625 36.9375 C10.9025 38.5875 10.2425 40.2375 9.5625 41.9375 C5.42242352 46.80817821 0.13575275 50.80451742 -6 52.75 C-6.804375 52.811875 -7.60875 52.87375 -8.4375 52.9375 C-9.984375 53.0921875 -9.984375 53.0921875 -11.5625 53.25 C-19.87620441 52.57953997 -26.44519562 49.77150461 -32.1953125 43.71875 C-33.4375 41.9375 -33.4375 41.9375 -34.4375 37.9375 C-28.1675 37.9375 -21.8975 37.9375 -15.4375 37.9375 C-14.7775 36.6175 -14.1175 35.2975 -13.4375 33.9375 C-12.3546875 32.4834375 -12.3546875 32.4834375 -11.25 31 C-9.24572333 28.18069097 -9.24572333 28.18069097 -9.375 25.5 C-10.63938895 22.45059135 -12.35085071 20.07936637 -14.37890625 17.48828125 C-15.4375 15.9375 -15.4375 15.9375 -15.4375 13.9375 C-22.0375 13.9375 -28.6375 13.9375 -35.4375 13.9375 C-32.35745358 6.23738395 -28.79881747 2.29060384 -21.3125 -1.140625 C-14.09228969 -3.45580113 -6.90365281 -3.12481127 0 0 Z M11.5625 20.9375 C10.9025 21.5975 10.2425 22.2575 9.5625 22.9375 C9.57172702 25.48463404 9.57172702 25.48463404 10.5625 27.9375 C12.53008273 29.29770151 12.53008273 29.29770151 14.5625 29.9375 C15.5525 29.2775 16.5425 28.6175 17.5625 27.9375 C17.97916667 25.4375 17.97916667 25.4375 17.5625 22.9375 C16.9025 22.2775 16.2425 21.6175 15.5625 20.9375 C14.2425 20.9375 12.9225 20.9375 11.5625 20.9375 Z " fill="#F0D872" transform="translate(535.4375,263.0625)"/>
<path d="M0 0 C22.48214733 -0.69594803 41.7111695 7.62793176 58.02734375 22.796875 C67.64995865 32.3720099 76.76650123 45.37234069 78.40234375 59.16015625 C78.07234375 59.82015625 77.74234375 60.48015625 77.40234375 61.16015625 C75.75234375 61.16015625 74.10234375 61.16015625 72.40234375 61.16015625 C71.67317708 59.70182292 70.94401042 58.24348958 70.21484375 56.78515625 C69.52261719 55.41230469 69.52261719 55.41230469 68.81640625 54.01171875 C67.93151571 52.22727097 67.0683678 50.43168522 66.23828125 48.62109375 C63.15179841 42.00720196 59.19907327 36.64478884 54.40234375 31.16015625 C53.8815625 30.54398438 53.36078125 29.9278125 52.82421875 29.29296875 C42.65044367 18.14292232 26.48024493 10.06164418 11.38354492 9.02099609 C-10.24682957 8.0957056 -28.2766214 13.21559422 -44.59765625 28.16015625 C-53.86967802 37.00371121 -59.74341647 48.42907678 -64.59765625 60.16015625 C-66.2637753 60.20287725 -67.9314851 60.20079457 -69.59765625 60.16015625 C-69.92765625 59.83015625 -70.25765625 59.50015625 -70.59765625 59.16015625 C-70.59765625 47.53994449 -62.89345026 36.6471003 -55.59765625 28.16015625 C-55.10136719 27.50917969 -54.60507812 26.85820312 -54.09375 26.1875 C-42.66209327 11.77616332 -24.3879055 3.56797755 -6.66015625 0.47265625 C-4.44201039 0.26204442 -2.22396973 0.13711693 0 0 Z " fill="#F0D670" transform="translate(627.59765625,204.83984375)"/>
<path d="M0 0 C1.65 0.33 3.3 0.66 5 1 C6.96332738 7.33941853 3.76401384 12.52930519 0.97851562 18.14355469 C-8.98864439 37.05330638 -25.42090011 51.55070202 -45.7890625 58.0703125 C-46.84867188 58.37710938 -47.90828125 58.68390625 -49 59 C-49.79148437 59.24492187 -50.58296875 59.48984375 -51.3984375 59.7421875 C-71.24174881 64.82486022 -91.87250771 60.00161988 -109.24902344 50.06445312 C-113.54028569 47.45571032 -117.30366564 44.38217936 -121 41 C-121.68191406 40.40960938 -122.36382813 39.81921875 -123.06640625 39.2109375 C-131.45704681 31.49351859 -142.17425313 17.00457305 -143.24609375 5.31640625 C-143 3 -143 3 -141 1 C-138.99121094 1.17431641 -138.99121094 1.17431641 -137 2 C-135.57786983 4.45586345 -134.39931664 6.79640873 -133.25 9.375 C-123.94043627 29.02221761 -109.86395746 42.64677152 -89.19140625 50.03515625 C-71.61913634 55.34770297 -53.93712197 53.73518316 -37.71362305 45.24707031 C-21.26137026 36.24775474 -11.54429679 24.59091831 -3.83642578 7.80175781 C-2.61561729 5.17199522 -1.30929465 2.58655763 0 0 Z " fill="#F0D671" transform="translate(700,310)"/>
<path d="M0 0 C1.98 0 3.96 0 6 0 C6.13558695 3.04317386 6.23437239 6.08025562 6.3125 9.125 C6.35439453 9.9809375 6.39628906 10.836875 6.43945312 11.71875 C6.52386769 16.10830724 6.44503851 19.06544754 3.60546875 22.5546875 C-0.72809359 26.62186895 -4.29119562 26.17532132 -9.98828125 26.203125 C-11.33130562 26.21167511 -11.33130562 26.21167511 -12.70146179 26.22039795 C-14.59873267 26.2298539 -16.49602001 26.23638429 -18.39331055 26.24023438 C-21.2904953 26.24992639 -24.18696662 26.28093831 -27.08398438 26.3125 C-28.92707912 26.31903143 -30.77017894 26.32428135 -32.61328125 26.328125 C-33.47802567 26.3404718 -34.34277008 26.3528186 -35.23371887 26.36553955 C-39.99349005 26.34799136 -43.12383278 26.07892788 -47 23 C-49.7906929 19.41196627 -49.14465334 15.33960021 -49 11 C-48.01 11.495 -48.01 11.495 -47 12 C-43.26941664 13.24352779 -39.86854475 13.63717208 -36 13 C-32.68819268 11.2371888 -32.68819268 11.2371888 -30 9 C-29.01 8.34 -28.02 7.68 -27 7 C-25.50260417 8.26953125 -24.00520833 9.5390625 -22.5078125 10.80859375 C-19.5025301 13.18323399 -16.89647131 13.33341706 -13.09765625 13.28515625 C-8.84130872 12.70654662 -6.04032991 10.15179383 -3.25 7.0625 C-1.86952642 4.7847186 -0.90357952 2.5022202 0 0 Z " fill="#1B1922" transform="translate(680,309)"/>
<path d="M0 0 C3.35286458 0.03255208 6.70572917 0.06510417 10.05859375 0.09765625 C10.05859375 8.01765625 10.05859375 15.93765625 10.05859375 24.09765625 C5.43859375 24.09765625 0.81859375 24.09765625 -3.94140625 24.09765625 C-3.96823417 20.28511002 -3.98816102 16.47275013 -4.00390625 12.66015625 C-4.01228516 11.57154297 -4.02066406 10.48292969 -4.02929688 9.36132812 C-4.03251953 8.32685547 -4.03574219 7.29238281 -4.0390625 6.2265625 C-4.04429932 5.2682251 -4.04953613 4.3098877 -4.05493164 3.32250977 C-3.88043519 -0.09724537 -3.4822216 0.11561161 0 0 Z " fill="#F3E483" transform="translate(564.94140625,275.90234375)"/>
<path d="M0 0 C2.5 0.125 2.5 0.125 3.5 1.125 C3.625 4.125 3.625 4.125 3.5 7.125 C2.5 8.125 2.5 8.125 0 8.25 C-2.5 8.125 -2.5 8.125 -3.5 7.125 C-3.625 4.125 -3.625 4.125 -3.5 1.125 C-2.5 0.125 -2.5 0.125 0 0 Z " fill="#1B1922" transform="translate(547.5,329.875)"/>
<path d="M0 0 C2.5625 -0.25 2.5625 -0.25 5 0 C6 1 6 1 6.1875 3.4375 C6 6 6 6 4 8 C1.375 7.625 1.375 7.625 -1 7 C-1.625 5.1875 -1.625 5.1875 -2 3 C-1.34 2.01 -0.68 1.02 0 0 Z " fill="#1B1922" transform="translate(677,198)"/>
<path d="M0 0 C1.2065625 0.0309375 1.2065625 0.0309375 2.4375 0.0625 C3.5625 2.375 3.5625 2.375 4.4375 5.0625 C3.4475 6.5475 3.4475 6.5475 2.4375 8.0625 C-2.4375 7.1875 -2.4375 7.1875 -3.5625 6.0625 C-3.6875 3.5625 -3.6875 3.5625 -3.5625 1.0625 C-2.5625 0.0625 -2.5625 0.0625 0 0 Z " fill="#1B1922" transform="translate(584.5625,197.9375)"/>
<path d="M0 0 C2.5 0.125 2.5 0.125 3.5 1.125 C3.6875 3.5625 3.6875 3.5625 3.5 6.125 C2.84 6.785 2.18 7.445 1.5 8.125 C-1.125 7.75 -1.125 7.75 -3.5 7.125 C-3.54254356 5.12545254 -3.54080783 3.12458364 -3.5 1.125 C-2.5 0.125 -2.5 0.125 0 0 Z " fill="#1B1922" transform="translate(631.5,386.875)"/>
<path d="M0 0 C2.5625 -0.25 2.5625 -0.25 5 0 C6 1 6 1 6.0625 3.5625 C6.041875 4.366875 6.02125 5.17125 6 6 C3.625 7.0625 3.625 7.0625 1 8 C-1 7 -1 7 -1.75 5.125 C-2 3 -2 3 0 0 Z " fill="#1B1922" transform="translate(677,371)"/>
<path d="M0 0 C1.2065625 0.0309375 1.2065625 0.0309375 2.4375 0.0625 C3.5 1.875 3.5 1.875 4.4375 4.0625 C4.1075 5.0525 3.7775 6.0425 3.4375 7.0625 C1.5625 7.875 1.5625 7.875 -0.5625 8.0625 C-1.5525 7.4025 -2.5425 6.7425 -3.5625 6.0625 C-3.8125 3.5 -3.8125 3.5 -3.5625 1.0625 C-2.5625 0.0625 -2.5625 0.0625 0 0 Z " fill="#1B1922" transform="translate(584.5625,370.9375)"/>
<path d="M0 0 C1.67542976 0.28604898 3.34385343 0.61781233 5 1 C5.625 3.375 5.625 3.375 6 6 C5.34 6.66 4.68 7.32 4 8 C1.375 7.625 1.375 7.625 -1 7 C-1.04254356 5.00045254 -1.04080783 2.99958364 -1 1 C-0.67 0.67 -0.34 0.34 0 0 Z " fill="#1B1922" transform="translate(711,330)"/>
<path d="M0 0 C2.5 0.125 2.5 0.125 3.5 1.125 C3.54063832 2.79117115 3.542721 4.45888095 3.5 6.125 C1.85 6.785 0.2 7.445 -1.5 8.125 C-3.5 6.125 -3.5 6.125 -3.6875 3.5625 C-3.4324847 0.24730106 -3.33009823 0.16650491 0 0 Z " fill="#1B1922" transform="translate(631.5,181.875)"/>
<path d="M0 0 C1.99954746 -0.04254356 4.00041636 -0.04080783 6 0 C7 1 7 1 7.125 3.5 C7 6 7 6 6 7 C3.5 7.125 3.5 7.125 1 7 C0 6 0 6 -0.0625 2.9375 C-0.041875 1.968125 -0.02125 0.99875 0 0 Z " fill="#1B1922" transform="translate(710,239)"/>
<path d="M0 0 C2.5 0.125 2.5 0.125 3.5 1.125 C3.625 3.625 3.625 3.625 3.5 6.125 C2.5 7.125 2.5 7.125 0 7.25 C-2.5 7.125 -2.5 7.125 -3.5 6.125 C-3.625 3.625 -3.625 3.625 -3.5 1.125 C-2.5 0.125 -2.5 0.125 0 0 Z " fill="#1B1922" transform="translate(547.5,238.875)"/>
</svg>
